<?xml version="1.0" standalone="no"?><!DOCTYPE svg PUBLIC "-//W3C//DTD SVG 1.1//EN" "http://www.w3.org/Graphics/SVG/1.1/DTD/svg11.dtd"><svg xmlns="http://www.w3.org/2000/svg" version="1.1" width="740.5" height="400.5" xmlns:xlink="http://www.w3.org/1999/xlink" xlink="http://www.w3.org/1999/xlink" style="position:relative;overflow:hidden;" viewBox="94.667 127.667 740.5 400.5"><defs/><g><g width="19" height="19" transform="scale(1,1) translate(107.167,307.167)"><g width="19" height="19" transform="scale(1,1) translate(0,0)" stroke="#000000" stroke-width="1" stroke-dasharray="none" fill="#000000" fill-opacity="1" stroke-opacity="1"><ellipse rx="9.5" ry="9.5" cx="9.5" cy="9.5"/></g></g><g width="41.667" height="33.333" transform="scale(1,1) translate(212.5,300)"><g transform="scale(1,1) translate(0,0)" stroke="#545454" fill="#FFFFFF" fill-opacity="1" stroke-opacity="1"><path d="M20.833,0 L41.667,16.667 L20.833,33.333 L0,16.667 L20.833,0 z" stroke-width="1" stroke-dasharray="none"/></g></g><g width="72.333" height="15.667" transform="scale(1,1) translate(188.833,267.167)"><g stroke="#545454" stroke-opacity="1" stroke-width="0" stroke-dasharray="none" width="72.333" height="15.667" transform="scale(1,1) translate(0,0)" fill="none"><rect width="72.333" height="15.667"/></g><g width="72.33333333333333" height="15.666666666666666" transform="scale(1,1) translate(0,0)"><text width="72.33333333333333" height="15.624999046325684" transform="scale(1,1) translate(0,0.02083381017049124)" xml:space="preserve"><tspan xml:space="preserve" text-rendering="optimizeSpeed" font-size="13.88888888888889" font-weight="normal" font-style="normal" text-decoration="none" fill="#333333" opacity="1" x="0" text-anchor="start" y="12.5" textLength="72.314453125" style="font-family: Arial, Helvetica Neue, Helvetica, sans-serif;">Input Valid?</tspan></text></g></g><g width="86.333" height="1" transform="scale(1,1) translate(126.167,316.667)"><g transform="scale(1,1) translate(0,0)" fill="#000000" stroke="#000000" stroke-opacity="1"><path d="M 0 0 L 76.333 0" fill="none" stroke-width="1" stroke-dasharray="0"/><g><g stroke-dasharray="none"><path d="M76.333,-5L86.333,0L76.333,5z" stroke="none" fill-opacity="1"/></g></g></g></g><g width="1" height="116.667" transform="scale(1,1) translate(233.333,333.333)"><g transform="scale(1,1) translate(0,0)" fill="#000000" stroke="#000000" stroke-opacity="1"><path d="M 0 0 L 0 106.667" fill="none" stroke-width="1" stroke-dasharray="0"/><g><g stroke-dasharray="none"><path d="M5,106.667L0,116.667L-5,106.667z" stroke="none" fill-opacity="1"/></g></g></g><g stroke-width="0" stroke-dasharray="none" fill="#FFFFFF" opacity="1" width="19.757" height="17.625" transform="scale(1,1) translate(-9.879,49.521)"><rect width="19.757" height="17.625"/></g><g width="17.757160186767578" height="116.66666666666669" transform="scale(1,1) translate(-8.879,50.521)"><text width="17.757160186767578" height="15.624999046325684" transform="scale(1,1) translate(0,0)" xml:space="preserve"><tspan xml:space="preserve" text-rendering="optimizeSpeed" font-size="13.88888888888889" font-weight="normal" font-style="normal" text-decoration="none" fill="#333333" opacity="1" x="0" text-anchor="start" y="12.5" textLength="17.757160186767578" style="font-family: Arial, Helvetica Neue, Helvetica, sans-serif;">No</tspan></text></g></g><g width="25" height="25" transform="scale(1,1) translate(220.833,449.667)"><g width="25" height="25"><g transform="scale(1.041665894014437,1.0416669288167906) translate(0,0)"><g><g width="23" height="23" transform="scale(1,1) translate(0.499,0.5)"><g width="23" height="23" transform="scale(1,1) translate(0,0)" stroke-opacity="1" stroke="#000000" stroke-width="1" stroke-dasharray="none" fill="none"><ellipse rx="11.5" ry="11.5" cx="11.5" cy="11.5"/></g></g><g width="11" height="11" transform="scale(1,1) translate(6.499,6.5)"><g width="11" height="11" transform="scale(1,1) translate(0,0)" stroke-opacity="1" stroke="#000000" stroke-width="1" stroke-dasharray="none" fill-opacity="1" fill="#000000"><ellipse rx="5.5" ry="5.5" cx="5.5" cy="5.5"/></g></g></g></g></g></g><g width="63" height="15.667" transform="scale(1,1) translate(193.5,492.167)"><g stroke="#545454" stroke-opacity="1" stroke-width="0" stroke-dasharray="none" width="63" height="15.667" transform="scale(1,1) translate(0,0)" fill="none"><rect width="63" height="15.667"/></g><g width="63.037105560302734" height="15.666666666666666" transform="scale(1,1) translate(0,0)"><text width="63.037105560302734" height="15.624999046325684" transform="scale(1,1) translate(0,0.02083381017049124)" xml:space="preserve"><tspan xml:space="preserve" text-rendering="optimizeSpeed" font-size="13.88888888888889" font-weight="normal" font-style="normal" text-decoration="none" fill="#333333" opacity="1" x="0" text-anchor="start" y="12.5" textLength="63.037105560302734" style="font-family: Arial, Helvetica Neue, Helvetica, sans-serif;">HTTP 422</tspan></text></g></g><g width="104.167" height="1" transform="scale(1,1) translate(254.167,316.667)"><g transform="scale(1,1) translate(0,0)" fill="#000000" stroke="#000000" stroke-opacity="1"><path d="M 0 0 L 94.167 0" fill="none" stroke-width="1" stroke-dasharray="0"/><g><g stroke-dasharray="none"><path d="M94.167,-5L104.167,0L94.167,5z" stroke="none" fill-opacity="1"/></g></g></g><g stroke-width="0" stroke-dasharray="none" fill="#FFFFFF" opacity="1" width="24.656" height="17.625" transform="scale(1,1) translate(39.755,-8.812)"><rect width="24.656" height="17.625"/></g><g width="22.65625" height="15.624999046325684" transform="scale(1,1) translate(40.755,-7.812)"><text width="22.65625" height="15.624999046325684" transform="scale(1,1) translate(0,0)" xml:space="preserve"><tspan xml:space="preserve" text-rendering="optimizeSpeed" font-size="13.88888888888889" font-weight="normal" font-style="normal" text-decoration="none" fill="#333333" opacity="1" x="0" text-anchor="start" y="12.5" textLength="22.65625" style="font-family: Arial, Helvetica Neue, Helvetica, sans-serif;">Yes</tspan></text></g></g><g width="41.667" height="33.333" transform="scale(1,1) translate(358.333,300)"><g transform="scale(1,1) translate(0,0)" stroke="#545454" fill="#FFFFFF" fill-opacity="1" stroke-opacity="1"><path d="M20.833,0 L41.667,16.667 L20.833,33.333 L0,16.667 L20.833,0 z" stroke-width="1" stroke-dasharray="none"/></g></g><g width="4.167" height="125" transform="scale(1,1) translate(375,333.333)"><g transform="scale(1,1) translate(0,0)" fill="#000000" stroke="#000000" stroke-opacity="1"><path d="M 0 115 L 0 25 L 4.167 25 L 4.167 0" fill="none" stroke-width="1" stroke-dasharray="0"/><g><g stroke-dasharray="none"><path d="M5,115L0,125L-5,115z" stroke="none" fill-opacity="1"/></g></g></g><g stroke-width="0" stroke-dasharray="none" fill="#FFFFFF" opacity="1" width="24.656" height="17.625" transform="scale(1,1) translate(-10.245,16.188)"><rect width="24.656" height="17.625"/></g><g width="22.65625" height="125" transform="scale(1,1) translate(-9.245,17.188)"><text width="22.65625" height="15.624999046325684" transform="scale(1,1) translate(0,0)" xml:space="preserve"><tspan xml:space="preserve" text-rendering="optimizeSpeed" font-size="13.88888888888889" font-weight="normal" font-style="normal" text-decoration="none" fill="#333333" opacity="1" x="0" text-anchor="start" y="12.5" textLength="22.65625" style="font-family: Arial, Helvetica Neue, Helvetica, sans-serif;">Yes</tspan></text></g></g><g width="25" height="25" transform="scale(1,1) translate(362.5,458)"><g width="25" height="25"><g transform="scale(1.041665894014437,1.0416669288167906) translate(0,0)"><g><g width="23" height="23" transform="scale(1,1) translate(0.499,0.5)"><g width="23" height="23" transform="scale(1,1) translate(0,0)" stroke-opacity="1" stroke="#000000" stroke-width="1" stroke-dasharray="none" fill="none"><ellipse rx="11.5" ry="11.5" cx="11.5" cy="11.5"/></g></g><g width="11" height="11" transform="scale(1,1) translate(6.499,6.5)"><g width="11" height="11" transform="scale(1,1) translate(0,0)" stroke-opacity="1" stroke="#000000" stroke-width="1" stroke-dasharray="none" fill-opacity="1" fill="#000000"><ellipse rx="5.5" ry="5.5" cx="5.5" cy="5.5"/></g></g></g></g></g></g><g width="63" height="15.667" transform="scale(1,1) translate(335.167,500.5)"><g stroke="#545454" stroke-opacity="1" stroke-width="0" stroke-dasharray="none" width="63" height="15.667" transform="scale(1,1) translate(0,0)" fill="none"><rect width="63" height="15.667"/></g><g width="63.037105560302734" height="15.666666666666666" transform="scale(1,1) translate(0,0)"><text width="63.037105560302734" height="15.624999046325684" transform="scale(1,1) translate(0,0.02083381017049124)" xml:space="preserve"><tspan xml:space="preserve" text-rendering="optimizeSpeed" font-size="13.88888888888889" font-weight="normal" font-style="normal" text-decoration="none" fill="#333333" opacity="1" x="0" text-anchor="start" y="12.5" textLength="63.037105560302734" style="font-family: Arial, Helvetica Neue, Helvetica, sans-serif;">HTTP 403</tspan></text></g></g><g width="190.667" height="15.667" transform="scale(1,1) translate(288,275.5)"><g stroke="#545454" stroke-opacity="1" stroke-width="0" stroke-dasharray="none" width="190.667" height="15.667" transform="scale(1,1) translate(0,0)" fill="none"><rect width="190.667" height="15.667"/></g><g width="190.66666666666666" height="15.666666666666666" transform="scale(1,1) translate(0,0)"><text width="190.66666666666666" height="15.624999046325684" transform="scale(1,1) translate(0,0.02083381017049124)" xml:space="preserve"><tspan xml:space="preserve" text-rendering="optimizeSpeed" font-size="13.88888888888889" font-weight="normal" font-style="normal" text-decoration="none" fill="#333333" opacity="1" x="0" text-anchor="start" y="12.5" textLength="190.6087188720703" style="font-family: Arial, Helvetica Neue, Helvetica, sans-serif;">Topic Exists with Same Name?</tspan></text></g></g><g width="133.333" height="1" transform="scale(1,1) translate(400,316.667)"><g transform="scale(1,1) translate(0,0)" fill="#000000" stroke="#000000" stroke-opacity="1"><path d="M 0 0 L 123.333 0" fill="none" stroke-width="1" stroke-dasharray="0"/><g><g stroke-dasharray="none"><path d="M123.333,-5L133.333,0L123.333,5z" stroke="none" fill-opacity="1"/></g></g></g><g stroke-width="0" stroke-dasharray="none" fill="#FFFFFF" opacity="1" width="19.757" height="17.625" transform="scale(1,1) translate(56.788,-8.812)"><rect width="19.757" height="17.625"/></g><g width="17.757160186767578" height="15.624999046325684" transform="scale(1,1) translate(57.788,-7.812)"><text width="17.757160186767578" height="15.624999046325684" transform="scale(1,1) translate(0,0)" xml:space="preserve"><tspan xml:space="preserve" text-rendering="optimizeSpeed" font-size="13.88888888888889" font-weight="normal" font-style="normal" text-decoration="none" fill="#333333" opacity="1" x="0" text-anchor="start" y="12.5" textLength="17.757160186767578" style="font-family: Arial, Helvetica Neue, Helvetica, sans-serif;">No</tspan></text></g></g><g width="150" height="75" transform="scale(1,1) translate(533.333,279.167)"><g transform="scale(1,1) translate(0,0)" stroke="#7F7F7F" fill="#FFFFFF" fill-opacity="1" stroke-opacity="1"><path d="M0,10 a10,10 0 0,1 10,-10 l130,0 a10,10 0 0,1 10,10 l0,55 a10,10 0 0,1 -10,10 l-130,0 a10,10 0 0,1 -10,-10 z" stroke-width="1" stroke-dasharray="none"/></g><g width="143" height="68" transform="scale(1,1) translate(3.5,3.5)"><text width="143" height="15.624999046325684" transform="scale(1,1) translate(0,26.187500476837158)" xml:space="preserve"><tspan xml:space="preserve" text-rendering="optimizeSpeed" font-size="13.88888888888889" font-weight="normal" font-style="normal" text-decoration="none" fill="#333333" opacity="1" x="21.598" text-anchor="start" y="12.5" textLength="99.8046875" style="font-family: Arial, Helvetica Neue, Helvetica, sans-serif;">Write New Topic</tspan></text></g></g><g width="100" height="1" transform="scale(1,1) translate(683.333,316.667)"><g transform="scale(1,1) translate(0,0)" fill="#000000" stroke="#000000" stroke-opacity="1"><path d="M 0 0 L 90 0" fill="none" stroke-width="1" stroke-dasharray="0"/><g><g stroke-dasharray="none"><path d="M90,-5L100,0L90,5z" stroke="none" fill-opacity="1"/></g></g></g></g><g width="25" height="25" transform="scale(1,1) translate(783.333,304.167)"><g width="25" height="25"><g transform="scale(1.041665894014437,1.0416669288167906) translate(0,0)"><g><g width="23" height="23" transform="scale(1,1) translate(0.499,0.5)"><g width="23" height="23" transform="scale(1,1) translate(0,0)" stroke-opacity="1" stroke="#000000" stroke-width="1" stroke-dasharray="none" fill="none"><ellipse rx="11.5" ry="11.5" cx="11.5" cy="11.5"/></g></g><g width="11" height="11" transform="scale(1,1) translate(6.499,6.5)"><g width="11" height="11" transform="scale(1,1) translate(0,0)" stroke-opacity="1" stroke="#000000" stroke-width="1" stroke-dasharray="none" fill-opacity="1" fill="#000000"><ellipse rx="5.5" ry="5.5" cx="5.5" cy="5.5"/></g></g></g></g></g></g><g width="63" height="15.667" transform="scale(1,1) translate(760.167,342.167)"><g stroke="#545454" stroke-opacity="1" stroke-width="0" stroke-dasharray="none" width="63" height="15.667" transform="scale(1,1) translate(0,0)" fill="none"><rect width="63" height="15.667"/></g><g width="63.037105560302734" height="15.666666666666666" transform="scale(1,1) translate(0,0)"><text width="63.037105560302734" height="15.624999046325684" transform="scale(1,1) translate(0,0.02083381017049124)" xml:space="preserve"><tspan xml:space="preserve" text-rendering="optimizeSpeed" font-size="13.88888888888889" font-weight="normal" font-style="normal" text-decoration="none" fill="#333333" opacity="1" x="0" text-anchor="start" y="12.5" textLength="63.037105560302734" style="font-family: Arial, Helvetica Neue, Helvetica, sans-serif;">HTTP 201</tspan></text></g></g><g width="199.333" height="37.5" transform="scale(1,1) translate(367,139.667)"><g stroke="#545454" stroke-opacity="1" stroke-width="0" stroke-dasharray="none" width="199.333" height="37.5" transform="scale(1,1) translate(0,0)" fill="none"><rect width="199.333" height="37.5"/></g><g width="199.43032836914062" height="37.5" transform="scale(1,1) translate(0,0)"><text width="199.43032836914062" height="37.5" transform="scale(1,1) translate(0,0)" xml:space="preserve"><tspan xml:space="preserve" text-rendering="optimizeSpeed" font-size="33.333333333333336" font-weight="bold" font-style="normal" text-decoration="none" fill="#333333" opacity="1" x="0" text-anchor="start" y="30.208" textLength="199.43032836914062" style="font-family: Arial, Helvetica Neue, Helvetica, sans-serif;">Create Topic</tspan></text></g></g></g></svg>