<?xml version="1.0" standalone="no"?><!DOCTYPE svg PUBLIC "-//W3C//DTD SVG 1.1//EN" "http://www.w3.org/Graphics/SVG/1.1/DTD/svg11.dtd"><svg xmlns="http://www.w3.org/2000/svg" version="1.1" width="742.833" height="528.083" xmlns:xlink="http://www.w3.org/1999/xlink" xlink="http://www.w3.org/1999/xlink" style="position:relative;overflow:hidden;" viewBox="53 94.333 742.833 528.083"><defs/><g><g width="19" height="19" transform="scale(1,1) translate(65.5,290.5)"><g width="19" height="19" transform="scale(1,1) translate(0,0)" stroke="#000000" stroke-width="1" stroke-dasharray="none" fill="#000000" fill-opacity="1" stroke-opacity="1"><ellipse rx="9.5" ry="9.5" cx="9.5" cy="9.5"/></g></g><g width="48.833" height="1" transform="scale(1,1) translate(84.5,300)"><g transform="scale(1,1) translate(0,0)" fill="#000000" stroke="#000000" stroke-opacity="1"><path d="M 0 0 L 38.833 0" fill="none" stroke-width="1" stroke-dasharray="none"/><g><g stroke-dasharray="none"><path d="M38.833,-5L48.833,0L38.833,5z" stroke="none" fill-opacity="1"/></g></g></g></g><g width="41.667" height="33.333" transform="scale(1,1) translate(133.333,283.333)"><g transform="scale(1,1) translate(0,0)" stroke="#545454" fill="#FFFFFF" fill-opacity="1" stroke-opacity="1"><path d="M20.833,0 L41.667,16.667 L20.833,33.333 L0,16.667 L20.833,0 z" stroke-width="1" stroke-dasharray="none"/></g></g><g width="4.167" height="91.667" transform="scale(1,1) translate(150,316.667)"><g transform="scale(1,1) translate(0,0)" fill="#000000" stroke="#000000" stroke-opacity="1"><path d="M 0 81.667 L 0 25 L 4.167 25 L 4.167 0" fill="none" stroke-width="1" stroke-dasharray="none"/><g><g stroke-dasharray="none"><path d="M5,81.667L0,91.667L-5,81.667z" stroke="none" fill-opacity="1"/></g></g></g><g stroke-width="0" stroke-dasharray="none" fill="#FFFFFF" opacity="1" width="24.656" height="17.625" transform="scale(1,1) translate(-10.245,16.188)"><rect width="24.656" height="17.625"/></g><g width="22.65625" height="91.66666666666663" transform="scale(1,1) translate(-9.245,17.188)"><text width="22.65625" height="15.624999046325684" transform="scale(1,1) translate(0,0)" xml:space="preserve"><tspan xml:space="preserve" text-rendering="optimizeSpeed" font-size="13.88888888888889" font-weight="normal" font-style="normal" text-decoration="none" fill="#333333" opacity="1" x="0" text-anchor="start" y="12.5" textLength="22.65625" style="font-family: Arial, Helvetica Neue, Helvetica, sans-serif;">Yes</tspan></text></g></g><g width="25" height="25" transform="scale(1,1) translate(137.5,408)"><g width="25" height="25"><g transform="scale(1.041665894014437,1.0416669288167906) translate(0,0)"><g><g width="23" height="23" transform="scale(1,1) translate(0.499,0.5)"><g width="23" height="23" transform="scale(1,1) translate(0,0)" stroke-opacity="1" stroke="#000000" stroke-width="1" stroke-dasharray="none" fill="none"><ellipse rx="11.5" ry="11.5" cx="11.5" cy="11.5"/></g></g><g width="11" height="11" transform="scale(1,1) translate(6.499,6.5)"><g width="11" height="11" transform="scale(1,1) translate(0,0)" stroke-opacity="1" stroke="#000000" stroke-width="1" stroke-dasharray="none" fill-opacity="1" fill="#000000"><ellipse rx="5.5" ry="5.5" cx="5.5" cy="5.5"/></g></g></g></g></g></g><g width="63" height="15.667" transform="scale(1,1) translate(110.167,450.5)"><g stroke="#545454" stroke-opacity="1" stroke-width="0" stroke-dasharray="none" width="63" height="15.667" transform="scale(1,1) translate(0,0)" fill="none"><rect width="63" height="15.667"/></g><g width="63.037105560302734" height="15.666666666666666" transform="scale(1,1) translate(0,0)"><text width="63.037105560302734" height="15.624999046325684" transform="scale(1,1) translate(0,0.02083381017049124)" xml:space="preserve"><tspan xml:space="preserve" text-rendering="optimizeSpeed" font-size="13.88888888888889" font-weight="normal" font-style="normal" text-decoration="none" fill="#333333" opacity="1" x="0" text-anchor="start" y="12.5" textLength="63.037105560302734" style="font-family: Arial, Helvetica Neue, Helvetica, sans-serif;">HTTP 404</tspan></text></g></g><g width="94.167" height="15.5" transform="scale(1,1) translate(94.833,235.5)"><g stroke="#545454" stroke-opacity="1" stroke-width="0" stroke-dasharray="none" width="94.167" height="15.5" transform="scale(1,1) translate(0,0)" fill="none"><rect width="94.167" height="15.5"/></g><g width="94.17317199707031" height="15.624999046325684" transform="scale(1,1) translate(0,0)"><text width="94.17317199707031" height="15.624999046325684" transform="scale(1,1) translate(0,0)" xml:space="preserve"><tspan xml:space="preserve" text-rendering="optimizeSpeed" font-size="13.88888888888889" font-weight="normal" font-style="normal" text-decoration="none" fill="#333333" opacity="1" x="0" text-anchor="start" y="12.5" textLength="94.17317199707031" style="font-family: Arial, Helvetica Neue, Helvetica, sans-serif;">Path is Invalid?</tspan></text></g></g><g width="41.667" height="33.333" transform="scale(1,1) translate(245.833,283.333)"><g transform="scale(1,1) translate(0,0)" stroke="#545454" fill="#FFFFFF" fill-opacity="1" stroke-opacity="1"><path d="M20.833,0 L41.667,16.667 L20.833,33.333 L0,16.667 L20.833,0 z" stroke-width="1" stroke-dasharray="none"/></g></g><g width="70.833" height="1" transform="scale(1,1) translate(175,300)"><g transform="scale(1,1) translate(0,0)" fill="#000000" stroke="#000000" stroke-opacity="1"><path d="M 0 0 L 60.833 0" fill="none" stroke-width="1" stroke-dasharray="none"/><g><g stroke-dasharray="none"><path d="M60.833,-5L70.833,0L60.833,5z" stroke="none" fill-opacity="1"/></g></g></g><g stroke-width="0" stroke-dasharray="none" fill="#FFFFFF" opacity="1" width="19.757" height="17.625" transform="scale(1,1) translate(25.538,-8.812)"><rect width="19.757" height="17.625"/></g><g width="17.757160186767578" height="15.624999046325684" transform="scale(1,1) translate(26.538,-7.812)"><text width="17.757160186767578" height="15.624999046325684" transform="scale(1,1) translate(0,0)" xml:space="preserve"><tspan xml:space="preserve" text-rendering="optimizeSpeed" font-size="13.88888888888889" font-weight="normal" font-style="normal" text-decoration="none" fill="#333333" opacity="1" x="0" text-anchor="start" y="12.5" textLength="17.757160186767578" style="font-family: Arial, Helvetica Neue, Helvetica, sans-serif;">No</tspan></text></g></g><g width="132.667" height="15.667" transform="scale(1,1) translate(200.333,258.833)"><g stroke="#545454" stroke-opacity="1" stroke-width="0" stroke-dasharray="none" width="132.667" height="15.667" transform="scale(1,1) translate(0,0)" fill="none"><rect width="132.667" height="15.667"/></g><g width="132.7473907470703" height="15.666666666666666" transform="scale(1,1) translate(0,0)"><text width="132.7473907470703" height="15.624999046325684" transform="scale(1,1) translate(0,0.02083381017049124)" xml:space="preserve"><tspan xml:space="preserve" text-rendering="optimizeSpeed" font-size="13.88888888888889" font-weight="normal" font-style="normal" text-decoration="none" fill="#333333" opacity="1" x="0" text-anchor="start" y="12.5" textLength="132.7473907470703" style="font-family: Arial, Helvetica Neue, Helvetica, sans-serif;">Parent Folder Exists?</tspan></text></g></g><g width="105.667" height="103.833" transform="scale(1,1) translate(161,316.667)"><g transform="scale(1,1) translate(0,0)" fill="#000000" stroke="#000000" stroke-opacity="1"><path d="M 10 103.833 L 105.667 103.833 L 105.667 0" fill="none" stroke-width="1" stroke-dasharray="none"/><g><g stroke-dasharray="none"><path d="M10,108.833L0,103.833L10,98.833z" stroke="none" fill-opacity="1"/></g></g></g><g stroke-width="0" stroke-dasharray="none" fill="#FFFFFF" opacity="1" width="19.757" height="17.625" transform="scale(1,1) translate(42.955,95.021)"><rect width="19.757" height="17.625"/></g><g width="17.757160186767578" height="103.83333333333331" transform="scale(1,1) translate(43.955,96.021)"><text width="17.757160186767578" height="15.624999046325684" transform="scale(1,1) translate(0,0)" xml:space="preserve"><tspan xml:space="preserve" text-rendering="optimizeSpeed" font-size="13.88888888888889" font-weight="normal" font-style="normal" text-decoration="none" fill="#333333" opacity="1" x="0" text-anchor="start" y="12.5" textLength="17.757160186767578" style="font-family: Arial, Helvetica Neue, Helvetica, sans-serif;">No</tspan></text></g></g><g width="41.667" height="33.333" transform="scale(1,1) translate(362.5,283.333)"><g transform="scale(1,1) translate(0,0)" stroke="#545454" fill="#FFFFFF" fill-opacity="1" stroke-opacity="1"><path d="M20.833,0 L41.667,16.667 L20.833,33.333 L0,16.667 L20.833,0 z" stroke-width="1" stroke-dasharray="none"/></g></g><g width="156.333" height="15.667" transform="scale(1,1) translate(321.833,225.5)"><g stroke="#545454" stroke-opacity="1" stroke-width="0" stroke-dasharray="none" width="156.333" height="15.667" transform="scale(1,1) translate(0,0)" fill="none"><rect width="156.333" height="15.667"/></g><g width="156.4290313720703" height="15.666666666666666" transform="scale(1,1) translate(0,0)"><text width="156.4290313720703" height="15.624999046325684" transform="scale(1,1) translate(0,0.02083381017049124)" xml:space="preserve"><tspan xml:space="preserve" text-rendering="optimizeSpeed" font-size="13.88888888888889" font-weight="normal" font-style="normal" text-decoration="none" fill="#333333" opacity="1" x="0" text-anchor="start" y="12.5" textLength="156.4290313720703" style="font-family: Arial, Helvetica Neue, Helvetica, sans-serif;">Target has Type Conflict?</tspan></text></g></g><g width="75" height="1" transform="scale(1,1) translate(287.5,300)"><g transform="scale(1,1) translate(0,0)" fill="#000000" stroke="#000000" stroke-opacity="1"><path d="M 0 0 L 65 0" fill="none" stroke-width="1" stroke-dasharray="none"/><g><g stroke-dasharray="none"><path d="M65,-5L75,0L65,5z" stroke="none" fill-opacity="1"/></g></g></g><g stroke-width="0" stroke-dasharray="none" fill="#FFFFFF" opacity="1" width="24.656" height="17.625" transform="scale(1,1) translate(25.172,-8.812)"><rect width="24.656" height="17.625"/></g><g width="22.65625" height="15.624999046325684" transform="scale(1,1) translate(26.172,-7.812)"><text width="22.65625" height="15.624999046325684" transform="scale(1,1) translate(0,0)" xml:space="preserve"><tspan xml:space="preserve" text-rendering="optimizeSpeed" font-size="13.88888888888889" font-weight="normal" font-style="normal" text-decoration="none" fill="#333333" opacity="1" x="0" text-anchor="start" y="12.5" textLength="22.65625" style="font-family: Arial, Helvetica Neue, Helvetica, sans-serif;">Yes</tspan></text></g></g><g width="1" height="91.667" transform="scale(1,1) translate(383.333,316.667)"><g transform="scale(1,1) translate(0,0)" fill="#000000" stroke="#000000" stroke-opacity="1"><path d="M 0 0 L 0 81.667" fill="none" stroke-width="1" stroke-dasharray="none"/><g><g stroke-dasharray="none"><path d="M5,81.667L0,91.667L-5,81.667z" stroke="none" fill-opacity="1"/></g></g></g><g stroke-width="0" stroke-dasharray="none" fill="#FFFFFF" opacity="1" width="24.656" height="17.625" transform="scale(1,1) translate(-12.328,37.021)"><rect width="24.656" height="17.625"/></g><g width="22.65625" height="91.66666666666663" transform="scale(1,1) translate(-11.328,38.021)"><text width="22.65625" height="15.624999046325684" transform="scale(1,1) translate(0,0)" xml:space="preserve"><tspan xml:space="preserve" text-rendering="optimizeSpeed" font-size="13.88888888888889" font-weight="normal" font-style="normal" text-decoration="none" fill="#333333" opacity="1" x="0" text-anchor="start" y="12.5" textLength="22.65625" style="font-family: Arial, Helvetica Neue, Helvetica, sans-serif;">Yes</tspan></text></g></g><g width="25" height="25" transform="scale(1,1) translate(370.833,408)"><g width="25" height="25"><g transform="scale(1.041665894014437,1.0416669288167906) translate(0,0)"><g><g width="23" height="23" transform="scale(1,1) translate(0.499,0.5)"><g width="23" height="23" transform="scale(1,1) translate(0,0)" stroke-opacity="1" stroke="#000000" stroke-width="1" stroke-dasharray="none" fill="none"><ellipse rx="11.5" ry="11.5" cx="11.5" cy="11.5"/></g></g><g width="11" height="11" transform="scale(1,1) translate(6.499,6.5)"><g width="11" height="11" transform="scale(1,1) translate(0,0)" stroke-opacity="1" stroke="#000000" stroke-width="1" stroke-dasharray="none" fill-opacity="1" fill="#000000"><ellipse rx="5.5" ry="5.5" cx="5.5" cy="5.5"/></g></g></g></g></g></g><g width="63" height="15.667" transform="scale(1,1) translate(351.833,450.5)"><g stroke="#545454" stroke-opacity="1" stroke-width="0" stroke-dasharray="none" width="63" height="15.667" transform="scale(1,1) translate(0,0)" fill="none"><rect width="63" height="15.667"/></g><g width="63.037105560302734" height="15.666666666666666" transform="scale(1,1) translate(0,0)"><text width="63.037105560302734" height="15.624999046325684" transform="scale(1,1) translate(0,0.02083381017049124)" xml:space="preserve"><tspan xml:space="preserve" text-rendering="optimizeSpeed" font-size="13.88888888888889" font-weight="normal" font-style="normal" text-decoration="none" fill="#333333" opacity="1" x="0" text-anchor="start" y="12.5" textLength="63.037105560302734" style="font-family: Arial, Helvetica Neue, Helvetica, sans-serif;">HTTP 409</tspan></text></g></g><g width="41.667" height="33.333" transform="scale(1,1) translate(470.833,283.333)"><g transform="scale(1,1) translate(0,0)" stroke="#545454" fill="#FFFFFF" fill-opacity="1" stroke-opacity="1"><path d="M20.833,0 L41.667,16.667 L20.833,33.333 L0,16.667 L20.833,0 z" stroke-width="1" stroke-dasharray="none"/></g></g><g width="66.667" height="1" transform="scale(1,1) translate(404.167,300)"><g transform="scale(1,1) translate(0,0)" fill="#000000" stroke="#000000" stroke-opacity="1"><path d="M 0 0 L 56.667 0" fill="none" stroke-width="1" stroke-dasharray="none"/><g><g stroke-dasharray="none"><path d="M56.667,-5L66.667,0L56.667,5z" stroke="none" fill-opacity="1"/></g></g></g><g stroke-width="0" stroke-dasharray="none" fill="#FFFFFF" opacity="1" width="19.757" height="17.625" transform="scale(1,1) translate(23.455,-8.812)"><rect width="19.757" height="17.625"/></g><g width="17.757160186767578" height="15.624999046325684" transform="scale(1,1) translate(24.455,-7.812)"><text width="17.757160186767578" height="15.624999046325684" transform="scale(1,1) translate(0,0)" xml:space="preserve"><tspan xml:space="preserve" text-rendering="optimizeSpeed" font-size="13.88888888888889" font-weight="normal" font-style="normal" text-decoration="none" fill="#333333" opacity="1" x="0" text-anchor="start" y="12.5" textLength="17.757160186767578" style="font-family: Arial, Helvetica Neue, Helvetica, sans-serif;">No</tspan></text></g></g><g width="80" height="15.667" transform="scale(1,1) translate(451.667,250.5)"><g stroke="#545454" stroke-opacity="1" stroke-width="0" stroke-dasharray="none" width="80" height="15.667" transform="scale(1,1) translate(0,0)" fill="none"><rect width="80" height="15.667"/></g><g width="80.029296875" height="15.666666666666666" transform="scale(1,1) translate(0,0)"><text width="80.029296875" height="15.624999046325684" transform="scale(1,1) translate(0,0.02083381017049124)" xml:space="preserve"><tspan xml:space="preserve" text-rendering="optimizeSpeed" font-size="13.88888888888889" font-weight="normal" font-style="normal" text-decoration="none" fill="#333333" opacity="1" x="0" text-anchor="start" y="12.5" textLength="80.029296875" style="font-family: Arial, Helvetica Neue, Helvetica, sans-serif;">Target Type?</tspan></text></g></g><g width="1" height="195.833" transform="scale(1,1) translate(491.667,316.667)"><g transform="scale(1,1) translate(0,0)" fill="#000000" stroke="#000000" stroke-opacity="1"><path d="M 0 0 L 0 185.833" fill="none" stroke-width="1" stroke-dasharray="none"/><g><g stroke-dasharray="none"><path d="M5,185.833L0,195.833L-5,185.833z" stroke="none" fill-opacity="1"/></g></g></g><g stroke-width="0" stroke-dasharray="none" fill="#FFFFFF" opacity="1" width="40.607" height="17.625" transform="scale(1,1) translate(-20.303,89.104)"><rect width="40.607" height="17.625"/></g><g width="38.60676956176758" height="195.83333333333337" transform="scale(1,1) translate(-19.303,90.104)"><text width="38.60676956176758" height="15.624999046325684" transform="scale(1,1) translate(0,0)" xml:space="preserve"><tspan xml:space="preserve" text-rendering="optimizeSpeed" font-size="13.88888888888889" font-weight="normal" font-style="normal" text-decoration="none" fill="#333333" opacity="1" x="0" text-anchor="start" y="12.5" textLength="38.60676956176758" style="font-family: Arial, Helvetica Neue, Helvetica, sans-serif;">Folder</tspan></text></g></g><g width="150" height="75" transform="scale(1,1) translate(416.667,512.5)"><g transform="scale(1,1) translate(0,0)" stroke="#7F7F7F" fill="#FFFFFF" fill-opacity="1" stroke-opacity="1"><path d="M0,10 a10,10 0 0,1 10,-10 l130,0 a10,10 0 0,1 10,10 l0,55 a10,10 0 0,1 -10,10 l-130,0 a10,10 0 0,1 -10,-10 z" stroke-width="1" stroke-dasharray="none"/></g><g width="143" height="68" transform="scale(1,1) translate(3.5,3.5)"><text width="143" height="15.624999046325684" transform="scale(1,1) translate(0,26.187500476837158)" xml:space="preserve"><tspan xml:space="preserve" text-rendering="optimizeSpeed" font-size="13.88888888888889" font-weight="normal" font-style="normal" text-decoration="none" fill="#333333" opacity="1" x="34.195" text-anchor="start" y="12.5" textLength="74.609375" style="font-family: Arial, Helvetica Neue, Helvetica, sans-serif;">Write Folder</tspan></text></g></g><g width="120.833" height="1" transform="scale(1,1) translate(512.5,300)"><g transform="scale(1,1) translate(0,0)" fill="#000000" stroke="#000000" stroke-opacity="1"><path d="M 0 0 L 110.833 0" fill="none" stroke-width="1" stroke-dasharray="none"/><g><g stroke-dasharray="none"><path d="M110.833,-5L120.833,0L110.833,5z" stroke="none" fill-opacity="1"/></g></g></g><g stroke-width="0" stroke-dasharray="none" fill="#FFFFFF" opacity="1" width="65.298" height="17.625" transform="scale(1,1) translate(27.768,-8.812)"><rect width="65.298" height="17.625"/></g><g width="63.297523498535156" height="15.624999046325684" transform="scale(1,1) translate(28.768,-7.812)"><text width="63.297523498535156" height="15.624999046325684" transform="scale(1,1) translate(0,0)" xml:space="preserve"><tspan xml:space="preserve" text-rendering="optimizeSpeed" font-size="13.88888888888889" font-weight="normal" font-style="normal" text-decoration="none" fill="#333333" opacity="1" x="0" text-anchor="start" y="12.5" textLength="63.297523498535156" style="font-family: Arial, Helvetica Neue, Helvetica, sans-serif;">Document</tspan></text></g></g><g width="150" height="75" transform="scale(1,1) translate(633.333,262.5)"><g transform="scale(1,1) translate(0,0)" stroke="#7F7F7F" fill="#FFFFFF" fill-opacity="1" stroke-opacity="1"><path d="M0,10 a10,10 0 0,1 10,-10 l130,0 a10,10 0 0,1 10,10 l0,55 a10,10 0 0,1 -10,10 l-130,0 a10,10 0 0,1 -10,-10 z" stroke-width="1" stroke-dasharray="none"/></g><g width="143" height="68" transform="scale(1,1) translate(3.5,3.5)"><text width="143" height="15.624999046325684" transform="scale(1,1) translate(0,26.187500476837158)" xml:space="preserve"><tspan xml:space="preserve" text-rendering="optimizeSpeed" font-size="13.88888888888889" font-weight="normal" font-style="normal" text-decoration="none" fill="#333333" opacity="1" x="21.85" text-anchor="start" y="12.5" textLength="99.30012512207031" style="font-family: Arial, Helvetica Neue, Helvetica, sans-serif;">Write Document</tspan></text></g></g><g width="25" height="25" transform="scale(1,1) translate(695.833,537.5)"><g width="25" height="25"><g transform="scale(1.041665894014437,1.0416669288167906) translate(0,0)"><g><g width="23" height="23" transform="scale(1,1) translate(0.499,0.5)"><g width="23" height="23" transform="scale(1,1) translate(0,0)" stroke-opacity="1" stroke="#000000" stroke-width="1" stroke-dasharray="none" fill="none"><ellipse rx="11.5" ry="11.5" cx="11.5" cy="11.5"/></g></g><g width="11" height="11" transform="scale(1,1) translate(6.499,6.5)"><g width="11" height="11" transform="scale(1,1) translate(0,0)" stroke-opacity="1" stroke="#000000" stroke-width="1" stroke-dasharray="none" fill-opacity="1" fill="#000000"><ellipse rx="5.5" ry="5.5" cx="5.5" cy="5.5"/></g></g></g></g></g></g><g width="129.167" height="1" transform="scale(1,1) translate(566.667,550)"><g transform="scale(1,1) translate(0,0)" fill="#000000" stroke="#000000" stroke-opacity="1"><path d="M 0 0 L 119.167 0" fill="none" stroke-width="1" stroke-dasharray="none"/><g><g stroke-dasharray="none"><path d="M119.167,-5L129.167,0L119.167,5z" stroke="none" fill-opacity="1"/></g></g></g></g><g width="1" height="200.333" transform="scale(1,1) translate(708.333,337.5)"><g transform="scale(1,1) translate(0,0)" fill="#000000" stroke="#000000" stroke-opacity="1"><path d="M 0 0 L 0 190.333" fill="none" stroke-width="1" stroke-dasharray="none"/><g><g stroke-dasharray="none"><path d="M5,190.333L0,200.333L-5,190.333z" stroke="none" fill-opacity="1"/></g></g></g></g><g width="594.667" height="37.5" transform="scale(1,1) translate(186,106.333)"><g stroke="#545454" stroke-opacity="1" stroke-width="0" stroke-dasharray="none" width="594.667" height="37.5" transform="scale(1,1) translate(0,0)" fill="none"><rect width="594.667" height="37.5"/></g><g width="594.6666666666666" height="37.5" transform="scale(1,1) translate(0,0)"><text width="594.6666666666666" height="37.5" transform="scale(1,1) translate(0,0)" xml:space="preserve"><tspan xml:space="preserve" text-rendering="optimizeSpeed" font-size="33.333333333333336" font-weight="bold" font-style="normal" text-decoration="none" fill="#333333" opacity="1" x="0" text-anchor="start" y="30.208" textLength="594.53125" style="font-family: Arial, Helvetica Neue, Helvetica, sans-serif;">Create or Update Folder or Document</tspan></text></g></g><g width="63.037" height="37.5" transform="scale(1,1) translate(685.148,572.917)"><g stroke="#545454" stroke-opacity="1" stroke-width="0" stroke-dasharray="none" width="63.037" height="37.5" transform="scale(1,1) translate(0,0)" fill="none"><rect width="63.037" height="37.5"/></g><g width="63.037105560302734" height="37.5" transform="scale(1,1) translate(0,0)"><text width="63.037105560302734" height="31.249998092651367" transform="scale(1,1) translate(0,3.1250009536743164)" xml:space="preserve"><tspan xml:space="preserve" text-rendering="optimizeSpeed" font-size="13.88888888888889" font-weight="normal" font-style="normal" text-decoration="none" fill="#333333" opacity="1" x="0" text-anchor="start" y="12.5" textLength="63.037105560302734" style="font-family: Arial, Helvetica Neue, Helvetica, sans-serif;">HTTP 200</tspan><tspan xml:space="preserve" text-rendering="optimizeSpeed" font-size="13.88888888888889" font-weight="normal" font-style="normal" text-decoration="none" fill="#333333" opacity="1" x="0" text-anchor="start" y="28.125" textLength="63.037105560302734" style="font-family: Arial, Helvetica Neue, Helvetica, sans-serif;">HTTP 201</tspan></text></g></g></g></svg>