<?xml version="1.0" standalone="no"?><!DOCTYPE svg PUBLIC "-//W3C//DTD SVG 1.1//EN" "http://www.w3.org/Graphics/SVG/1.1/DTD/svg11.dtd"><svg xmlns="http://www.w3.org/2000/svg" version="1.1" width="765.519" height="326.167" xmlns:xlink="http://www.w3.org/1999/xlink" xlink="http://www.w3.org/1999/xlink" style="position:relative;overflow:hidden;" viewBox="103 136 765.519 326.167"><defs/><g><g width="19" height="19" transform="scale(1,1) translate(115.5,307.167)"><g width="19" height="19" transform="scale(1,1) translate(0,0)" stroke="#000000" stroke-width="1" stroke-dasharray="none" fill="#000000" fill-opacity="1" stroke-opacity="1"><ellipse rx="9.5" ry="9.5" cx="9.5" cy="9.5"/></g></g><g width="41.667" height="33.333" transform="scale(1,1) translate(195.833,300)"><g transform="scale(1,1) translate(0,0)" stroke="#545454" fill="#FFFFFF" fill-opacity="1" stroke-opacity="1"><path d="M20.833,0 L41.667,16.667 L20.833,33.333 L0,16.667 L20.833,0 z" stroke-width="1" stroke-dasharray="none"/></g></g><g width="61.333" height="1" transform="scale(1,1) translate(134.5,316.667)"><g transform="scale(1,1) translate(0,0)" fill="#000000" stroke="#000000" stroke-opacity="1"><path d="M0,0 L61.333,0" fill="none" stroke-width="1" stroke-dasharray="none"/><g><g stroke-dasharray="none"><path d="M-1,-1L1,-1L1,1L-1,1z" stroke-width="0" fill="none"/></g></g></g></g><g width="87.333" height="15.667" transform="scale(1,1) translate(156.333,275.5)"><g stroke="#545454" stroke-opacity="1" stroke-width="0" stroke-dasharray="none" width="87.333" height="15.667" transform="scale(1,1) translate(0,0)" fill="none"><rect width="87.333" height="15.667"/></g><g width="87.33333333333333" height="15.666666666666666" transform="scale(1,1) translate(0,0)"><text width="87.33333333333333" height="15.624999046325684" transform="scale(1,1) translate(0,0.02083381017049124)" xml:space="preserve"><tspan xml:space="preserve" text-rendering="optimizeSpeed" font-size="13.88888888888889" font-weight="normal" font-style="normal" text-decoration="none" fill="#333333" opacity="1" x="0" text-anchor="start" y="12.5" textLength="87.20703125" style="font-family: Arial, Helvetica Neue, Helvetica, sans-serif;">Target Exists?</tspan></text></g></g><g width="1" height="91.667" transform="scale(1,1) translate(216.667,333.333)"><g transform="scale(1,1) translate(0,0)" fill="#000000" stroke="#000000" stroke-opacity="1"><path d="M 0 0 L 0 81.667" fill="none" stroke-width="1" stroke-dasharray="none"/><g><g stroke-dasharray="none"><path d="M5,81.667L0,91.667L-5,81.667z" stroke="none" fill-opacity="1"/></g></g></g><g stroke-width="0" stroke-dasharray="none" fill="#FFFFFF" opacity="1" width="19.757" height="17.625" transform="scale(1,1) translate(-9.879,37.021)"><rect width="19.757" height="17.625"/></g><g width="17.757160186767578" height="91.66666666666669" transform="scale(1,1) translate(-8.879,38.021)"><text width="17.757160186767578" height="15.624999046325684" transform="scale(1,1) translate(0,0)" xml:space="preserve"><tspan xml:space="preserve" text-rendering="optimizeSpeed" font-size="13.88888888888889" font-weight="normal" font-style="normal" text-decoration="none" fill="#333333" opacity="1" x="0" text-anchor="start" y="12.5" textLength="17.757160186767578" style="font-family: Arial, Helvetica Neue, Helvetica, sans-serif;">No</tspan></text></g></g><g width="25" height="25" transform="scale(1,1) translate(204.167,424.667)"><g width="25" height="25"><g transform="scale(1.041665894014437,1.0416669288167906) translate(0,0)"><g><g width="23" height="23" transform="scale(1,1) translate(0.499,0.5)"><g width="23" height="23" transform="scale(1,1) translate(0,0)" stroke-opacity="1" stroke="#000000" stroke-width="1" stroke-dasharray="none" fill="none"><ellipse rx="11.5" ry="11.5" cx="11.5" cy="11.5"/></g></g><g width="11" height="11" transform="scale(1,1) translate(6.499,6.5)"><g width="11" height="11" transform="scale(1,1) translate(0,0)" stroke-opacity="1" stroke="#000000" stroke-width="1" stroke-dasharray="none" fill-opacity="1" fill="#000000"><ellipse rx="5.5" ry="5.5" cx="5.5" cy="5.5"/></g></g></g></g></g></g><g width="63" height="15.667" transform="scale(1,1) translate(135.167,417.167)"><g stroke="#545454" stroke-opacity="1" stroke-width="0" stroke-dasharray="none" width="63" height="15.667" transform="scale(1,1) translate(0,0)" fill="none"><rect width="63" height="15.667"/></g><g width="63.037105560302734" height="15.666666666666666" transform="scale(1,1) translate(0,0)"><text width="63.037105560302734" height="15.624999046325684" transform="scale(1,1) translate(0,0.02083381017049124)" xml:space="preserve"><tspan xml:space="preserve" text-rendering="optimizeSpeed" font-size="13.88888888888889" font-weight="normal" font-style="normal" text-decoration="none" fill="#333333" opacity="1" x="0" text-anchor="start" y="12.5" textLength="63.037105560302734" style="font-family: Arial, Helvetica Neue, Helvetica, sans-serif;">HTTP 404</tspan></text></g></g><g width="41.667" height="33.333" transform="scale(1,1) translate(354.167,300)"><g transform="scale(1,1) translate(0,0)" stroke="#545454" fill="#FFFFFF" fill-opacity="1" stroke-opacity="1"><path d="M20.833,0 L41.667,16.667 L20.833,33.333 L0,16.667 L20.833,0 z" stroke-width="1" stroke-dasharray="none"/></g></g><g width="152.667" height="15.667" transform="scale(1,1) translate(298.667,275.5)"><g stroke="#545454" stroke-opacity="1" stroke-width="0" stroke-dasharray="none" width="152.667" height="15.667" transform="scale(1,1) translate(0,0)" fill="none"><rect width="152.667" height="15.667"/></g><g width="152.79946899414062" height="15.666666666666666" transform="scale(1,1) translate(0,0)"><text width="152.79946899414062" height="15.624999046325684" transform="scale(1,1) translate(0,0.02083381017049124)" xml:space="preserve"><tspan xml:space="preserve" text-rendering="optimizeSpeed" font-size="13.88888888888889" font-weight="normal" font-style="normal" text-decoration="none" fill="#333333" opacity="1" x="0" text-anchor="start" y="12.5" textLength="152.79946899414062" style="font-family: Arial, Helvetica Neue, Helvetica, sans-serif;">Target is Root Directory?</tspan></text></g></g><g width="116.667" height="1" transform="scale(1,1) translate(237.5,316.667)"><g transform="scale(1,1) translate(0,0)" fill="#000000" stroke="#000000" stroke-opacity="1"><path d="M 0 0 L 106.667 0" fill="none" stroke-width="1" stroke-dasharray="none"/><g><g stroke-dasharray="none"><path d="M106.667,-5L116.667,0L106.667,5z" stroke="none" fill-opacity="1"/></g></g></g><g stroke-width="0" stroke-dasharray="none" fill="#FFFFFF" opacity="1" width="24.656" height="17.625" transform="scale(1,1) translate(46.005,-8.812)"><rect width="24.656" height="17.625"/></g><g width="22.65625" height="15.624999046325684" transform="scale(1,1) translate(47.005,-7.812)"><text width="22.65625" height="15.624999046325684" transform="scale(1,1) translate(0,0)" xml:space="preserve"><tspan xml:space="preserve" text-rendering="optimizeSpeed" font-size="13.88888888888889" font-weight="normal" font-style="normal" text-decoration="none" fill="#333333" opacity="1" x="0" text-anchor="start" y="12.5" textLength="22.65625" style="font-family: Arial, Helvetica Neue, Helvetica, sans-serif;">Yes</tspan></text></g></g><g width="1" height="91.667" transform="scale(1,1) translate(375,333.333)"><g transform="scale(1,1) translate(0,0)" fill="#000000" stroke="#000000" stroke-opacity="1"><path d="M 0 0 L 0 81.667" fill="none" stroke-width="1" stroke-dasharray="none"/><g><g stroke-dasharray="none"><path d="M5,81.667L0,91.667L-5,81.667z" stroke="none" fill-opacity="1"/></g></g></g><g stroke-width="0" stroke-dasharray="none" fill="#FFFFFF" opacity="1" width="24.656" height="17.625" transform="scale(1,1) translate(-12.328,37.021)"><rect width="24.656" height="17.625"/></g><g width="22.65625" height="91.66666666666669" transform="scale(1,1) translate(-11.328,38.021)"><text width="22.65625" height="15.624999046325684" transform="scale(1,1) translate(0,0)" xml:space="preserve"><tspan xml:space="preserve" text-rendering="optimizeSpeed" font-size="13.88888888888889" font-weight="normal" font-style="normal" text-decoration="none" fill="#333333" opacity="1" x="0" text-anchor="start" y="12.5" textLength="22.65625" style="font-family: Arial, Helvetica Neue, Helvetica, sans-serif;">Yes</tspan></text></g></g><g width="25" height="25" transform="scale(1,1) translate(362.5,424.667)"><g width="25" height="25"><g transform="scale(1.041665894014437,1.0416669288167906) translate(0,0)"><g><g width="23" height="23" transform="scale(1,1) translate(0.499,0.5)"><g width="23" height="23" transform="scale(1,1) translate(0,0)" stroke-opacity="1" stroke="#000000" stroke-width="1" stroke-dasharray="none" fill="none"><ellipse rx="11.5" ry="11.5" cx="11.5" cy="11.5"/></g></g><g width="11" height="11" transform="scale(1,1) translate(6.499,6.5)"><g width="11" height="11" transform="scale(1,1) translate(0,0)" stroke-opacity="1" stroke="#000000" stroke-width="1" stroke-dasharray="none" fill-opacity="1" fill="#000000"><ellipse rx="5.5" ry="5.5" cx="5.5" cy="5.5"/></g></g></g></g></g></g><g width="63" height="15.667" transform="scale(1,1) translate(301.833,408.833)"><g stroke="#545454" stroke-opacity="1" stroke-width="0" stroke-dasharray="none" width="63" height="15.667" transform="scale(1,1) translate(0,0)" fill="none"><rect width="63" height="15.667"/></g><g width="63.037105560302734" height="15.666666666666666" transform="scale(1,1) translate(0,0)"><text width="63.037105560302734" height="15.624999046325684" transform="scale(1,1) translate(0,0.02083381017049124)" xml:space="preserve"><tspan xml:space="preserve" text-rendering="optimizeSpeed" font-size="13.88888888888889" font-weight="normal" font-style="normal" text-decoration="none" fill="#333333" opacity="1" x="0" text-anchor="start" y="12.5" textLength="63.037105560302734" style="font-family: Arial, Helvetica Neue, Helvetica, sans-serif;">HTTP 403</tspan></text></g></g><g width="137.5" height="1" transform="scale(1,1) translate(395.833,316.667)"><g transform="scale(1,1) translate(0,0)" fill="#000000" stroke="#000000" stroke-opacity="1"><path d="M 0 0 L 127.5 0" fill="none" stroke-width="1" stroke-dasharray="none"/><g><g stroke-dasharray="none"><path d="M127.5,-5L137.5,0L127.5,5z" stroke="none" fill-opacity="1"/></g></g></g><g stroke-width="0" stroke-dasharray="none" fill="#FFFFFF" opacity="1" width="19.757" height="17.625" transform="scale(1,1) translate(58.871,-8.812)"><rect width="19.757" height="17.625"/></g><g width="17.757160186767578" height="15.624999046325684" transform="scale(1,1) translate(59.871,-7.812)"><text width="17.757160186767578" height="15.624999046325684" transform="scale(1,1) translate(0,0)" xml:space="preserve"><tspan xml:space="preserve" text-rendering="optimizeSpeed" font-size="13.88888888888889" font-weight="normal" font-style="normal" text-decoration="none" fill="#333333" opacity="1" x="0" text-anchor="start" y="12.5" textLength="17.757160186767578" style="font-family: Arial, Helvetica Neue, Helvetica, sans-serif;">No</tspan></text></g></g><g width="150" height="75" transform="scale(1,1) translate(533.333,279.167)"><g transform="scale(1,1) translate(0,0)" stroke="#7F7F7F" fill="#FFFFFF" fill-opacity="1" stroke-opacity="1"><path d="M0,10 a10,10 0 0,1 10,-10 l130,0 a10,10 0 0,1 10,10 l0,55 a10,10 0 0,1 -10,10 l-130,0 a10,10 0 0,1 -10,-10 z" stroke-width="1" stroke-dasharray="none"/></g><g width="143" height="68" transform="scale(1,1) translate(3.5,3.5)"><text width="143" height="31.249998092651367" transform="scale(1,1) translate(0,18.375000953674316)" xml:space="preserve"><tspan xml:space="preserve" text-rendering="optimizeSpeed" font-size="13.88888888888889" font-weight="normal" font-style="normal" text-decoration="none" fill="#333333" opacity="1" x="14.892" text-anchor="start" y="12.5" textLength="109.35871887207031" style="font-family: Arial, Helvetica Neue, Helvetica, sans-serif;">Delete Target and</tspan><tspan xml:space="preserve" text-rendering="optimizeSpeed" font-size="13.88888888888889" font-weight="normal" font-style="normal" text-decoration="none" fill="#333333" opacity="1" x="5.118" text-anchor="start" y="28.125" textLength="132.763671875" style="font-family: Arial, Helvetica Neue, Helvetica, sans-serif;">Sub-objects by Name</tspan></text></g></g><g width="25" height="25" transform="scale(1,1) translate(820.833,304.167)"><g width="25" height="25"><g transform="scale(1.041665894014437,1.0416669288167906) translate(0,0)"><g><g width="23" height="23" transform="scale(1,1) translate(0.499,0.5)"><g width="23" height="23" transform="scale(1,1) translate(0,0)" stroke-opacity="1" stroke="#000000" stroke-width="1" stroke-dasharray="none" fill="none"><ellipse rx="11.5" ry="11.5" cx="11.5" cy="11.5"/></g></g><g width="11" height="11" transform="scale(1,1) translate(6.499,6.5)"><g width="11" height="11" transform="scale(1,1) translate(0,0)" stroke-opacity="1" stroke="#000000" stroke-width="1" stroke-dasharray="none" fill-opacity="1" fill="#000000"><ellipse rx="5.5" ry="5.5" cx="5.5" cy="5.5"/></g></g></g></g></g></g><g width="137.5" height="1" transform="scale(1,1) translate(683.333,316.667)"><g transform="scale(1,1) translate(0,0)" fill="#000000" stroke="#000000" stroke-opacity="1"><path d="M 0 0 L 127.5 0" fill="none" stroke-width="1" stroke-dasharray="none"/><g><g stroke-dasharray="none"><path d="M127.5,-5L137.5,0L127.5,5z" stroke="none" fill-opacity="1"/></g></g></g></g><g width="37.5" height="1" transform="scale(1,1) translate(158.333,316.667)"><g transform="scale(1,1) translate(0,0)" fill="#000000" stroke="#000000" stroke-opacity="1"><path d="M 0 0 L 27.5 0" fill="none" stroke-width="1" stroke-dasharray="none"/><g><g stroke-dasharray="none"><path d="M27.5,-5L37.5,0L27.5,5z" stroke="none" fill-opacity="1"/></g></g></g></g><g width="426" height="37.5" transform="scale(1,1) translate(245.333,148)"><g stroke="#545454" stroke-opacity="1" stroke-width="0" stroke-dasharray="none" width="426" height="37.5" transform="scale(1,1) translate(0,0)" fill="none"><rect width="426" height="37.5"/></g><g width="426" height="37.5" transform="scale(1,1) translate(0,0)"><text width="426" height="37.5" transform="scale(1,1) translate(0,0)" xml:space="preserve"><tspan xml:space="preserve" text-rendering="optimizeSpeed" font-size="33.333333333333336" font-weight="bold" font-style="normal" text-decoration="none" fill="#333333" opacity="1" x="0" text-anchor="start" y="30.208" textLength="425.9928283691406" style="font-family: Arial, Helvetica Neue, Helvetica, sans-serif;">Delete Folder or Document</tspan></text></g></g><g width="63.037" height="37.5" transform="scale(1,1) translate(793.481,339.583)"><g stroke="#545454" stroke-opacity="1" stroke-width="0" stroke-dasharray="none" width="63.037" height="37.5" transform="scale(1,1) translate(0,0)" fill="none"><rect width="63.037" height="37.5"/></g><g width="63.037105560302734" height="37.5" transform="scale(1,1) translate(0,0)"><text width="63.037105560302734" height="15.624999046325684" transform="scale(1,1) translate(0,10.937500476837158)" xml:space="preserve"><tspan xml:space="preserve" text-rendering="optimizeSpeed" font-size="13.88888888888889" font-weight="normal" font-style="normal" text-decoration="none" fill="#333333" opacity="1" x="0" text-anchor="start" y="12.5" textLength="63.037105560302734" style="font-family: Arial, Helvetica Neue, Helvetica, sans-serif;">HTTP 200</tspan></text></g></g></g></svg>