<?xml version="1.0" standalone="no"?><!DOCTYPE svg PUBLIC "-//W3C//DTD SVG 1.1//EN" "http://www.w3.org/Graphics/SVG/1.1/DTD/svg11.dtd"><svg xmlns="http://www.w3.org/2000/svg" version="1.1" width="750.162" height="375.562" xmlns:xlink="http://www.w3.org/1999/xlink" xlink="http://www.w3.org/1999/xlink" style="position:relative;overflow:hidden;" viewBox="144.667 127.583 750.162 375.562"><defs/><g><g width="19" height="19" transform="scale(1,1) translate(157.167,290.5)"><g width="19" height="19" transform="scale(1,1) translate(0,0)" stroke="#000000" stroke-width="1" stroke-dasharray="none" fill="#000000" fill-opacity="1" stroke-opacity="1"><ellipse rx="9.5" ry="9.5" cx="9.5" cy="9.5"/></g></g><g width="41.667" height="33.333" transform="scale(1,1) translate(270.833,283.333)"><g transform="scale(1,1) translate(0,0)" stroke="#545454" fill="#FFFFFF" fill-opacity="1" stroke-opacity="1"><path d="M20.833,0 L41.667,16.667 L20.833,33.333 L0,16.667 L20.833,0 z" stroke-width="1" stroke-dasharray="none"/></g></g><g width="175.749" height="15.625" transform="scale(1,1) translate(212.126,250.521)"><g stroke="#545454" stroke-opacity="1" stroke-width="0" stroke-dasharray="none" width="175.749" height="15.625" transform="scale(1,1) translate(0,0)" fill="none"><rect width="175.749" height="15.625"/></g><g width="175.74868774414062" height="15.624999046325684" transform="scale(1,1) translate(0,0)"><text width="175.74868774414062" height="15.624999046325684" transform="scale(1,1) translate(0,0)" xml:space="preserve"><tspan xml:space="preserve" text-rendering="optimizeSpeed" font-size="13.88888888888889" font-weight="normal" font-style="normal" text-decoration="none" fill="#333333" opacity="1" x="0" text-anchor="start" y="12.5" textLength="175.74868774414062" style="font-family: Arial, Helvetica Neue, Helvetica, sans-serif;">Is Topic Attached to INodes?</tspan></text></g></g><g width="94.667" height="1" transform="scale(1,1) translate(176.167,300)"><g transform="scale(1,1) translate(0,0)" fill="#000000" stroke="#000000" stroke-opacity="1"><path d="M 0 0 L 84.667 0" fill="none" stroke-width="1" stroke-dasharray="0"/><g><g stroke-dasharray="none"><path d="M84.667,-5L94.667,0L84.667,5z" stroke="none" fill-opacity="1"/></g></g></g></g><g width="1" height="91.667" transform="scale(1,1) translate(291.667,316.667)"><g transform="scale(1,1) translate(0,0)" fill="#000000" stroke="#000000" stroke-opacity="1"><path d="M 0 0 L 0 81.667" fill="none" stroke-width="1" stroke-dasharray="0"/><g><g stroke-dasharray="none"><path d="M5,81.667L0,91.667L-5,81.667z" stroke="none" fill-opacity="1"/></g></g></g><g stroke-width="0" stroke-dasharray="none" fill="#FFFFFF" opacity="1" width="24.656" height="17.625" transform="scale(1,1) translate(-12.328,37.021)"><rect width="24.656" height="17.625"/></g><g width="22.65625" height="91.66666666666674" transform="scale(1,1) translate(-11.328,38.021)"><text width="22.65625" height="15.624999046325684" transform="scale(1,1) translate(0,0)" xml:space="preserve"><tspan xml:space="preserve" text-rendering="optimizeSpeed" font-size="13.88888888888889" font-weight="normal" font-style="normal" text-decoration="none" fill="#333333" opacity="1" x="0" text-anchor="start" y="12.5" textLength="22.65625" style="font-family: Arial, Helvetica Neue, Helvetica, sans-serif;">Yes</tspan></text></g></g><g width="25" height="25" transform="scale(1,1) translate(279.167,408)"><g width="25" height="25"><g transform="scale(1.041665894014437,1.0416669288167906) translate(0,0)"><g><g width="23" height="23" transform="scale(1,1) translate(0.499,0.5)"><g width="23" height="23" transform="scale(1,1) translate(0,0)" stroke-opacity="1" stroke="#000000" stroke-width="1" stroke-dasharray="none" fill="none"><ellipse rx="11.5" ry="11.5" cx="11.5" cy="11.5"/></g></g><g width="11" height="11" transform="scale(1,1) translate(6.499,6.5)"><g width="11" height="11" transform="scale(1,1) translate(0,0)" stroke-opacity="1" stroke="#000000" stroke-width="1" stroke-dasharray="none" fill-opacity="1" fill="#000000"><ellipse rx="5.5" ry="5.5" cx="5.5" cy="5.5"/></g></g></g></g></g></g><g width="63.037" height="15.625" transform="scale(1,1) translate(260.148,450.521)"><g stroke="#545454" stroke-opacity="1" stroke-width="0" stroke-dasharray="none" width="63.037" height="15.625" transform="scale(1,1) translate(0,0)" fill="none"><rect width="63.037" height="15.625"/></g><g width="63.037105560302734" height="15.624999046325684" transform="scale(1,1) translate(0,0)"><text width="63.037105560302734" height="15.624999046325684" transform="scale(1,1) translate(0,0)" xml:space="preserve"><tspan xml:space="preserve" text-rendering="optimizeSpeed" font-size="13.88888888888889" font-weight="normal" font-style="normal" text-decoration="none" fill="#333333" opacity="1" x="0" text-anchor="start" y="12.5" textLength="63.037105560302734" style="font-family: Arial, Helvetica Neue, Helvetica, sans-serif;">HTTP 403</tspan></text></g></g><g width="137.5" height="1" transform="scale(1,1) translate(312.5,300)"><g transform="scale(1,1) translate(0,0)" fill="#000000" stroke="#000000" stroke-opacity="1"><path d="M 0 0 L 127.5 0" fill="none" stroke-width="1" stroke-dasharray="0"/><g><g stroke-dasharray="none"><path d="M127.5,-5L137.5,0L127.5,5z" stroke="none" fill-opacity="1"/></g></g></g><g stroke-width="0" stroke-dasharray="none" fill="#FFFFFF" opacity="1" width="19.757" height="17.625" transform="scale(1,1) translate(58.871,-8.812)"><rect width="19.757" height="17.625"/></g><g width="17.757160186767578" height="15.624999046325684" transform="scale(1,1) translate(59.871,-7.812)"><text width="17.757160186767578" height="15.624999046325684" transform="scale(1,1) translate(0,0)" xml:space="preserve"><tspan xml:space="preserve" text-rendering="optimizeSpeed" font-size="13.88888888888889" font-weight="normal" font-style="normal" text-decoration="none" fill="#333333" opacity="1" x="0" text-anchor="start" y="12.5" textLength="17.757160186767578" style="font-family: Arial, Helvetica Neue, Helvetica, sans-serif;">No</tspan></text></g></g><g width="150" height="75" transform="scale(1,1) translate(450,262.5)"><g transform="scale(1,1) translate(0,0)" stroke="#7F7F7F" fill="#FFFFFF" fill-opacity="1" stroke-opacity="1"><path d="M0,10 a10,10 0 0,1 10,-10 l130,0 a10,10 0 0,1 10,10 l0,55 a10,10 0 0,1 -10,10 l-130,0 a10,10 0 0,1 -10,-10 z" stroke-width="1" stroke-dasharray="none"/></g><g width="143.14213564" height="68.14213563999999" transform="scale(1,1) translate(3.429,3.429)"><text width="143.14213564" height="15.624999046325684" transform="scale(1,1) translate(0,26.258568296837154)" xml:space="preserve"><tspan xml:space="preserve" text-rendering="optimizeSpeed" font-size="13.88888888888889" font-weight="normal" font-style="normal" text-decoration="none" fill="#333333" opacity="1" x="31.044" text-anchor="start" y="12.5" textLength="81.0546875" style="font-family: Arial, Helvetica Neue, Helvetica, sans-serif;">Delete by PK</tspan></text></g></g><g width="41.667" height="33.333" transform="scale(1,1) translate(687.5,283.333)"><g transform="scale(1,1) translate(0,0)" stroke="#545454" fill="#FFFFFF" fill-opacity="1" stroke-opacity="1"><path d="M20.833,0 L41.667,16.667 L20.833,33.333 L0,16.667 L20.833,0 z" stroke-width="1" stroke-dasharray="none"/></g></g><g width="98.812" height="15.625" transform="scale(1,1) translate(658.927,250.521)"><g stroke="#545454" stroke-opacity="1" stroke-width="0" stroke-dasharray="none" width="98.812" height="15.625" transform="scale(1,1) translate(0,0)" fill="none"><rect width="98.812" height="15.625"/></g><g width="98.81184387207031" height="15.624999046325684" transform="scale(1,1) translate(0,0)"><text width="98.81184387207031" height="15.624999046325684" transform="scale(1,1) translate(0,0)" xml:space="preserve"><tspan xml:space="preserve" text-rendering="optimizeSpeed" font-size="13.88888888888889" font-weight="normal" font-style="normal" text-decoration="none" fill="#333333" opacity="1" x="0" text-anchor="start" y="12.5" textLength="98.81184387207031" style="font-family: Arial, Helvetica Neue, Helvetica, sans-serif;">Topics Deleted?</tspan></text></g></g><g width="87.501" height="1" transform="scale(1,1) translate(599.999,300)"><g transform="scale(1,1) translate(0,0)" fill="#000000" stroke="#000000" stroke-opacity="1"><path d="M 0 0 L 77.501 0" fill="none" stroke-width="1" stroke-dasharray="0"/><g><g stroke-dasharray="none"><path d="M77.501,-5L87.501,0L77.501,5z" stroke="none" fill-opacity="1"/></g></g></g></g><g width="1" height="116.667" transform="scale(1,1) translate(708.333,316.667)"><g transform="scale(1,1) translate(0,0)" fill="#000000" stroke="#000000" stroke-opacity="1"><path d="M 0 0 L 0 106.667" fill="none" stroke-width="1" stroke-dasharray="0"/><g><g stroke-dasharray="none"><path d="M5,106.667L0,116.667L-5,106.667z" stroke="none" fill-opacity="1"/></g></g></g><g stroke-width="0" stroke-dasharray="none" fill="#FFFFFF" opacity="1" width="19.757" height="17.625" transform="scale(1,1) translate(-9.879,49.521)"><rect width="19.757" height="17.625"/></g><g width="17.757160186767578" height="116.66666666666674" transform="scale(1,1) translate(-8.879,50.521)"><text width="17.757160186767578" height="15.624999046325684" transform="scale(1,1) translate(0,0)" xml:space="preserve"><tspan xml:space="preserve" text-rendering="optimizeSpeed" font-size="13.88888888888889" font-weight="normal" font-style="normal" text-decoration="none" fill="#333333" opacity="1" x="0" text-anchor="start" y="12.5" textLength="17.757160186767578" style="font-family: Arial, Helvetica Neue, Helvetica, sans-serif;">No</tspan></text></g></g><g width="25" height="25" transform="scale(1,1) translate(695.833,433)"><g width="25" height="25"><g transform="scale(1.041665894014437,1.0416669288167906) translate(0,0)"><g><g width="23" height="23" transform="scale(1,1) translate(0.499,0.5)"><g width="23" height="23" transform="scale(1,1) translate(0,0)" stroke-opacity="1" stroke="#000000" stroke-width="1" stroke-dasharray="none" fill="none"><ellipse rx="11.5" ry="11.5" cx="11.5" cy="11.5"/></g></g><g width="11" height="11" transform="scale(1,1) translate(6.499,6.5)"><g width="11" height="11" transform="scale(1,1) translate(0,0)" stroke-opacity="1" stroke="#000000" stroke-width="1" stroke-dasharray="none" fill-opacity="1" fill="#000000"><ellipse rx="5.5" ry="5.5" cx="5.5" cy="5.5"/></g></g></g></g></g></g><g width="112.5" height="1" transform="scale(1,1) translate(729.167,300)"><g transform="scale(1,1) translate(0,0)" fill="#000000" stroke="#000000" stroke-opacity="1"><path d="M 0 0 L 102.5 0" fill="none" stroke-width="1" stroke-dasharray="0"/><g><g stroke-dasharray="none"><path d="M102.5,-5L112.5,0L102.5,5z" stroke="none" fill-opacity="1"/></g></g></g><g stroke-width="0" stroke-dasharray="none" fill="#FFFFFF" opacity="1" width="24.656" height="17.625" transform="scale(1,1) translate(43.922,-8.812)"><rect width="24.656" height="17.625"/></g><g width="22.65625" height="15.624999046325684" transform="scale(1,1) translate(44.922,-7.812)"><text width="22.65625" height="15.624999046325684" transform="scale(1,1) translate(0,0)" xml:space="preserve"><tspan xml:space="preserve" text-rendering="optimizeSpeed" font-size="13.88888888888889" font-weight="normal" font-style="normal" text-decoration="none" fill="#333333" opacity="1" x="0" text-anchor="start" y="12.5" textLength="22.65625" style="font-family: Arial, Helvetica Neue, Helvetica, sans-serif;">Yes</tspan></text></g></g><g width="25" height="25" transform="scale(1,1) translate(841.667,287.5)"><g width="25" height="25"><g transform="scale(1.041665894014437,1.0416669288167906) translate(0,0)"><g><g width="23" height="23" transform="scale(1,1) translate(0.499,0.5)"><g width="23" height="23" transform="scale(1,1) translate(0,0)" stroke-opacity="1" stroke="#000000" stroke-width="1" stroke-dasharray="none" fill="none"><ellipse rx="11.5" ry="11.5" cx="11.5" cy="11.5"/></g></g><g width="11" height="11" transform="scale(1,1) translate(6.499,6.5)"><g width="11" height="11" transform="scale(1,1) translate(0,0)" stroke-opacity="1" stroke="#000000" stroke-width="1" stroke-dasharray="none" fill-opacity="1" fill="#000000"><ellipse rx="5.5" ry="5.5" cx="5.5" cy="5.5"/></g></g></g></g></g></g><g width="63.037" height="15.625" transform="scale(1,1) translate(676.815,475.521)"><g stroke="#545454" stroke-opacity="1" stroke-width="0" stroke-dasharray="none" width="63.037" height="15.625" transform="scale(1,1) translate(0,0)" fill="none"><rect width="63.037" height="15.625"/></g><g width="63.037105560302734" height="15.624999046325684" transform="scale(1,1) translate(0,0)"><text width="63.037105560302734" height="15.624999046325684" transform="scale(1,1) translate(0,0)" xml:space="preserve"><tspan xml:space="preserve" text-rendering="optimizeSpeed" font-size="13.88888888888889" font-weight="normal" font-style="normal" text-decoration="none" fill="#333333" opacity="1" x="0" text-anchor="start" y="12.5" textLength="63.037105560302734" style="font-family: Arial, Helvetica Neue, Helvetica, sans-serif;">HTTP 404</tspan></text></g></g><g width="63.037" height="15.625" transform="scale(1,1) translate(819.792,330.208)"><g stroke="#545454" stroke-opacity="1" stroke-width="0" stroke-dasharray="none" width="63.037" height="15.625" transform="scale(1,1) translate(0,0)" fill="none"><rect width="63.037" height="15.625"/></g><g width="63.037105560302734" height="15.624999046325684" transform="scale(1,1) translate(0,0)"><text width="63.037105560302734" height="15.624999046325684" transform="scale(1,1) translate(0,0)" xml:space="preserve"><tspan xml:space="preserve" text-rendering="optimizeSpeed" font-size="13.88888888888889" font-weight="normal" font-style="normal" text-decoration="none" fill="#333333" opacity="1" x="0" text-anchor="start" y="12.5" textLength="63.037105560302734" style="font-family: Arial, Helvetica Neue, Helvetica, sans-serif;">HTTP 200</tspan></text></g></g><g width="195.719" height="37.5" transform="scale(1,1) translate(402.14,139.583)"><g stroke="#545454" stroke-opacity="1" stroke-width="0" stroke-dasharray="none" width="195.719" height="37.5" transform="scale(1,1) translate(0,0)" fill="none"><rect width="195.719" height="37.5"/></g><g width="195.71939086914062" height="37.5" transform="scale(1,1) translate(0,0)"><text width="195.71939086914062" height="37.5" transform="scale(1,1) translate(0,0)" xml:space="preserve"><tspan xml:space="preserve" text-rendering="optimizeSpeed" font-size="33.333333333333336" font-weight="bold" font-style="normal" text-decoration="none" fill="#333333" opacity="1" x="0" text-anchor="start" y="30.208" textLength="195.71939086914062" style="font-family: Arial, Helvetica Neue, Helvetica, sans-serif;">Delete Topic</tspan></text></g></g></g></svg>