<?xml version="1.0" standalone="no"?><!DOCTYPE svg PUBLIC "-//W3C//DTD SVG 1.1//EN" "http://www.w3.org/Graphics/SVG/1.1/DTD/svg11.dtd"><svg xmlns="http://www.w3.org/2000/svg" version="1.1" width="792.822" height="372.333" xmlns:xlink="http://www.w3.org/1999/xlink" xlink="http://www.w3.org/1999/xlink" style="position:relative;overflow:hidden;" viewBox="61.333 61 792.822 372.333"><defs/><g><g width="19" height="19" transform="scale(1,1) translate(73.833,207.167)"><g width="19" height="19" transform="scale(1,1) translate(0,0)" stroke="#000000" stroke-width="1" stroke-dasharray="none" fill="#000000" fill-opacity="1" stroke-opacity="1"><ellipse rx="9.5" ry="9.5" cx="9.5" cy="9.5"/></g></g><g width="324" height="37.5" transform="scale(1,1) translate(329.667,73)"><g stroke="#545454" stroke-opacity="1" stroke-width="0" stroke-dasharray="none" width="324" height="37.5" transform="scale(1,1) translate(0,0)" fill="none"><rect width="324" height="37.5"/></g><g width="324.072265625" height="37.5" transform="scale(1,1) translate(0,0)"><text width="324.072265625" height="37.5" transform="scale(1,1) translate(0,0)" xml:space="preserve"><tspan xml:space="preserve" text-rendering="optimizeSpeed" font-size="33.333333333333336" font-weight="bold" font-style="normal" text-decoration="none" fill="#333333" opacity="1" x="0" text-anchor="start" y="30.208" textLength="324.072265625" style="font-family: Arial, Helvetica Neue, Helvetica, sans-serif;">List Folder Contents</tspan></text></g></g><g width="48.833" height="1" transform="scale(1,1) translate(92.833,216.667)"><g transform="scale(1,1) translate(0,0)" fill="#000000" stroke="#000000" stroke-opacity="1"><path d="M 0 0 L 38.833 0" fill="none" stroke-width="1" stroke-dasharray="none"/><g><g stroke-dasharray="none"><path d="M38.833,-5L48.833,0L38.833,5z" stroke="none" fill-opacity="1"/></g></g></g></g><g width="100" height="1" transform="scale(1,1) translate(708.333,216.667)"><g transform="scale(1,1) translate(0,0)" fill="#000000" stroke="#000000" stroke-opacity="1"><path d="M 0 0 L 90 0" fill="none" stroke-width="1" stroke-dasharray="none"/><g><g stroke-dasharray="none"><path d="M90,-5L100,0L90,5z" stroke="none" fill-opacity="1"/></g></g></g></g><g width="25" height="25" transform="scale(1,1) translate(808.333,204.167)"><g width="25" height="25"><g transform="scale(1.041665894014437,1.0416669288167906) translate(0,0)"><g><g width="23" height="23" transform="scale(1,1) translate(0.499,0.5)"><g width="23" height="23" transform="scale(1,1) translate(0,0)" stroke-opacity="1" stroke="#000000" stroke-width="1" stroke-dasharray="none" fill="none"><ellipse rx="11.5" ry="11.5" cx="11.5" cy="11.5"/></g></g><g width="11" height="11" transform="scale(1,1) translate(6.499,6.5)"><g width="11" height="11" transform="scale(1,1) translate(0,0)" stroke-opacity="1" stroke="#000000" stroke-width="1" stroke-dasharray="none" fill-opacity="1" fill="#000000"><ellipse rx="5.5" ry="5.5" cx="5.5" cy="5.5"/></g></g></g></g></g></g><g width="41.667" height="33.333" transform="scale(1,1) translate(141.667,200)"><g transform="scale(1,1) translate(0,0)" stroke="#545454" fill="#FFFFFF" fill-opacity="1" stroke-opacity="1"><path d="M20.833,0 L41.667,16.667 L20.833,33.333 L0,16.667 L20.833,0 z" stroke-width="1" stroke-dasharray="none"/></g></g><g width="4.167" height="100" transform="scale(1,1) translate(158.333,233.333)"><g transform="scale(1,1) translate(0,0)" fill="#000000" stroke="#000000" stroke-opacity="1"><path d="M 0 90 L 0 16.667 L 4.167 16.667 L 4.167 0" fill="none" stroke-width="1" stroke-dasharray="none"/><g><g stroke-dasharray="none"><path d="M5,90L0,100L-5,90z" stroke="none" fill-opacity="1"/></g></g></g><g stroke-width="0" stroke-dasharray="none" fill="#FFFFFF" opacity="1" width="17.983" height="16.583" transform="scale(1,1) translate(-6.908,8.375)"><rect width="17.983" height="16.583"/></g><g width="15.983072280883789" height="100" transform="scale(1,1) translate(-5.908,9.375)"><text width="15.983072280883789" height="14.583333015441895" transform="scale(1,1) translate(0,0)" xml:space="preserve"><tspan xml:space="preserve" text-rendering="optimizeSpeed" font-size="12.5" font-weight="normal" font-style="normal" text-decoration="none" fill="#333333" opacity="1" x="0" text-anchor="start" y="11.458" textLength="15.983072280883789" style="font-family: Arial, Helvetica Neue, Helvetica, sans-serif;">No</tspan></text></g></g><g width="25" height="25" transform="scale(1,1) translate(145.833,333)"><g width="25" height="25"><g transform="scale(1.041665894014437,1.0416669288167906) translate(0,0)"><g><g width="23" height="23" transform="scale(1,1) translate(0.499,0.5)"><g width="23" height="23" transform="scale(1,1) translate(0,0)" stroke-opacity="1" stroke="#000000" stroke-width="1" stroke-dasharray="none" fill="none"><ellipse rx="11.5" ry="11.5" cx="11.5" cy="11.5"/></g></g><g width="11" height="11" transform="scale(1,1) translate(6.499,6.5)"><g width="11" height="11" transform="scale(1,1) translate(0,0)" stroke-opacity="1" stroke="#000000" stroke-width="1" stroke-dasharray="none" fill-opacity="1" fill="#000000"><ellipse rx="5.5" ry="5.5" cx="5.5" cy="5.5"/></g></g></g></g></g></g><g width="56.738" height="14.667" transform="scale(1,1) translate(129.964,367.667)"><g stroke="#545454" stroke-opacity="1" stroke-width="0" stroke-dasharray="none" width="56.738" height="14.667" transform="scale(1,1) translate(0,0)" fill="none"><rect width="56.738" height="14.667"/></g><g width="56.738277435302734" height="14.666666666666666" transform="scale(1,1) translate(0,0)"><text width="56.738277435302734" height="14.583333015441895" transform="scale(1,1) translate(0,0.04166682561238577)" xml:space="preserve"><tspan xml:space="preserve" text-rendering="optimizeSpeed" font-size="12.5" font-weight="normal" font-style="normal" text-decoration="none" fill="#333333" opacity="1" x="0" text-anchor="start" y="11.458" textLength="56.738277435302734" style="font-family: Arial, Helvetica Neue, Helvetica, sans-serif;">HTTP 404</tspan></text></g></g><g width="79.167" height="14.667" transform="scale(1,1) translate(113.833,167.667)"><g stroke="#545454" stroke-opacity="1" stroke-width="0" stroke-dasharray="none" width="79.167" height="14.667" transform="scale(1,1) translate(0,0)" fill="none"><rect width="79.167" height="14.667"/></g><g width="79.19921875" height="14.666666666666666" transform="scale(1,1) translate(0,0)"><text width="79.19921875" height="14.583333015441895" transform="scale(1,1) translate(0,0.04166682561238577)" xml:space="preserve"><tspan xml:space="preserve" text-rendering="optimizeSpeed" font-size="12.5" font-weight="normal" font-style="normal" text-decoration="none" fill="#333333" opacity="1" x="0" text-anchor="start" y="11.458" textLength="79.19921875" style="font-family: Arial, Helvetica Neue, Helvetica, sans-serif;">Folder Exists?</tspan></text></g></g><g width="150" height="75" transform="scale(1,1) translate(233.333,179.167)"><g transform="scale(1,1) translate(0,0)" stroke="#7F7F7F" fill="#FFFFFF" fill-opacity="1" stroke-opacity="1"><path d="M0,10 a10,10 0 0,1 10,-10 l130,0 a10,10 0 0,1 10,10 l0,55 a10,10 0 0,1 -10,10 l-130,0 a10,10 0 0,1 -10,-10 z" stroke-width="1" stroke-dasharray="none"/></g><g width="143" height="68" transform="scale(1,1) translate(3.5,3.5)"><text width="143" height="15.624999046325684" transform="scale(1,1) translate(0,26.187500476837158)" xml:space="preserve"><tspan xml:space="preserve" text-rendering="optimizeSpeed" font-size="13.88888888888889" font-weight="normal" font-style="normal" text-decoration="none" fill="#333333" opacity="1" x="9.879" text-anchor="start" y="12.5" textLength="123.24217987060547" style="font-family: Arial, Helvetica Neue, Helvetica, sans-serif;">Create INode Query</tspan></text></g></g><g width="50" height="1" transform="scale(1,1) translate(183.333,216.667)"><g transform="scale(1,1) translate(0,0)" fill="#000000" stroke="#000000" stroke-opacity="1"><path d="M 0 0 L 40 0" fill="none" stroke-width="1" stroke-dasharray="none"/><g><g stroke-dasharray="none"><path d="M40,-5L50,0L40,5z" stroke="none" fill-opacity="1"/></g></g></g><g stroke-width="0" stroke-dasharray="none" fill="#FFFFFF" opacity="1" width="22.394" height="16.583" transform="scale(1,1) translate(13.803,-8.292)"><rect width="22.394" height="16.583"/></g><g width="20.393878936767578" height="14.583333015441895" transform="scale(1,1) translate(14.803,-7.292)"><text width="20.393878936767578" height="14.583333015441895" transform="scale(1,1) translate(0,0)" xml:space="preserve"><tspan xml:space="preserve" text-rendering="optimizeSpeed" font-size="12.5" font-weight="normal" font-style="normal" text-decoration="none" fill="#333333" opacity="1" x="0" text-anchor="start" y="11.458" textLength="20.393878936767578" style="font-family: Arial, Helvetica Neue, Helvetica, sans-serif;">Yes</tspan></text></g></g><g width="41.667" height="33.333" transform="scale(1,1) translate(437.5,200)"><g transform="scale(1,1) translate(0,0)" stroke="#545454" fill="#FFFFFF" fill-opacity="1" stroke-opacity="1"><path d="M20.833,0 L41.667,16.667 L20.833,33.333 L0,16.667 L20.833,0 z" stroke-width="1" stroke-dasharray="none"/></g></g><g width="99.833" height="14.667" transform="scale(1,1) translate(403.833,167.667)"><g stroke="#545454" stroke-opacity="1" stroke-width="0" stroke-dasharray="none" width="99.833" height="14.667" transform="scale(1,1) translate(0,0)" fill="none"><rect width="99.833" height="14.667"/></g><g width="99.83333333333333" height="14.666666666666666" transform="scale(1,1) translate(0,0)"><text width="99.83333333333333" height="14.583333015441895" transform="scale(1,1) translate(0,0.04166682561238577)" xml:space="preserve"><tspan xml:space="preserve" text-rendering="optimizeSpeed" font-size="12.5" font-weight="normal" font-style="normal" text-decoration="none" fill="#333333" opacity="1" x="0" text-anchor="start" y="11.458" textLength="99.82096099853516" style="font-family: Arial, Helvetica Neue, Helvetica, sans-serif;">Have Topic Filter?</tspan></text></g></g><g width="150" height="75" transform="scale(1,1) translate(383.333,345.833)"><g transform="scale(1,1) translate(0,0)" stroke="#7F7F7F" fill="#FFFFFF" fill-opacity="1" stroke-opacity="1"><path d="M0,10 a10,10 0 0,1 10,-10 l130,0 a10,10 0 0,1 10,10 l0,55 a10,10 0 0,1 -10,10 l-130,0 a10,10 0 0,1 -10,-10 z" stroke-width="1" stroke-dasharray="none"/></g><g width="143" height="68" transform="scale(1,1) translate(3.5,3.5)"><text width="143" height="15.624999046325684" transform="scale(1,1) translate(0,26.187500476837158)" xml:space="preserve"><tspan xml:space="preserve" text-rendering="optimizeSpeed" font-size="13.88888888888889" font-weight="normal" font-style="normal" text-decoration="none" fill="#333333" opacity="1" x="8.731" text-anchor="start" y="12.5" textLength="125.53710174560547" style="font-family: Arial, Helvetica Neue, Helvetica, sans-serif;">Apply Filter to Query</tspan></text></g></g><g width="54.167" height="1" transform="scale(1,1) translate(383.333,216.667)"><g transform="scale(1,1) translate(0,0)" fill="#000000" stroke="#000000" stroke-opacity="1"><path d="M 0 0 L 44.167 0" fill="none" stroke-width="1" stroke-dasharray="none"/><g><g stroke-dasharray="none"><path d="M44.167,-5L54.167,0L44.167,5z" stroke="none" fill-opacity="1"/></g></g></g></g><g width="79.167" height="1" transform="scale(1,1) translate(479.167,216.667)"><g transform="scale(1,1) translate(0,0)" fill="#000000" stroke="#000000" stroke-opacity="1"><path d="M 0 0 L 69.167 0" fill="none" stroke-width="1" stroke-dasharray="none"/><g><g stroke-dasharray="none"><path d="M69.167,-5L79.167,0L69.167,5z" stroke="none" fill-opacity="1"/></g></g></g></g><g width="1" height="112.5" transform="scale(1,1) translate(458.333,233.333)"><g transform="scale(1,1) translate(0,0)" fill="#000000" stroke="#000000" stroke-opacity="1"><path d="M 0 0 L 0 102.5" fill="none" stroke-width="1" stroke-dasharray="none"/><g><g stroke-dasharray="none"><path d="M5,102.5L0,112.5L-5,102.5z" stroke="none" fill-opacity="1"/></g></g></g><g stroke-width="0" stroke-dasharray="none" fill="#FFFFFF" opacity="1" width="22.394" height="16.583" transform="scale(1,1) translate(-11.197,47.958)"><rect width="22.394" height="16.583"/></g><g width="20.393878936767578" height="112.5" transform="scale(1,1) translate(-10.197,48.958)"><text width="20.393878936767578" height="14.583333015441895" transform="scale(1,1) translate(0,0)" xml:space="preserve"><tspan xml:space="preserve" text-rendering="optimizeSpeed" font-size="12.5" font-weight="normal" font-style="normal" text-decoration="none" fill="#333333" opacity="1" x="0" text-anchor="start" y="11.458" textLength="20.393878936767578" style="font-family: Arial, Helvetica Neue, Helvetica, sans-serif;">Yes</tspan></text></g></g><g width="150" height="75" transform="scale(1,1) translate(558.333,179.167)"><g transform="scale(1,1) translate(0,0)" stroke="#7F7F7F" fill="#FFFFFF" fill-opacity="1" stroke-opacity="1"><path d="M0,10 a10,10 0 0,1 10,-10 l130,0 a10,10 0 0,1 10,10 l0,55 a10,10 0 0,1 -10,10 l-130,0 a10,10 0 0,1 -10,-10 z" stroke-width="1" stroke-dasharray="none"/></g><g width="143" height="68" transform="scale(1,1) translate(3.5,3.5)"><text width="143" height="31.249998092651367" transform="scale(1,1) translate(0,18.375000953674316)" xml:space="preserve"><tspan xml:space="preserve" text-rendering="optimizeSpeed" font-size="13.88888888888889" font-weight="normal" font-style="normal" text-decoration="none" fill="#333333" opacity="1" x="8.211" text-anchor="start" y="12.5" textLength="122.72135162353516" style="font-family: Arial, Helvetica Neue, Helvetica, sans-serif;">Retrieve Nodes and</tspan><tspan xml:space="preserve" text-rendering="optimizeSpeed" font-size="13.88888888888889" font-weight="normal" font-style="normal" text-decoration="none" fill="#333333" opacity="1" x="27.896" text-anchor="start" y="28.125" textLength="87.20702362060547" style="font-family: Arial, Helvetica Neue, Helvetica, sans-serif;">Format Result</tspan></text></g></g><g width="100" height="129.167" transform="scale(1,1) translate(533.333,254.167)"><g transform="scale(1,1) translate(0,0)" fill="#000000" stroke="#000000" stroke-opacity="1"><path d="M 0 129.167 L 100 129.167 L 100 10" fill="none" stroke-width="1" stroke-dasharray="none"/><g><g stroke-dasharray="none"><path d="M95,10L100,0L105,10z" stroke="none" fill-opacity="1"/></g></g></g></g><g width="56.738" height="14.583" transform="scale(1,1) translate(785.417,243.229)"><g stroke="#545454" stroke-opacity="1" stroke-width="0" stroke-dasharray="none" width="56.738" height="14.583" transform="scale(1,1) translate(0,0)" fill="none"><rect width="56.738" height="14.583"/></g><g width="56.738277435302734" height="14.583333015441895" transform="scale(1,1) translate(0,0)"><text width="56.738277435302734" height="14.583333015441895" transform="scale(1,1) translate(0,0)" xml:space="preserve"><tspan xml:space="preserve" text-rendering="optimizeSpeed" font-size="12.5" font-weight="normal" font-style="normal" text-decoration="none" fill="#333333" opacity="1" x="0" text-anchor="start" y="11.458" textLength="56.738277435302734" style="font-family: Arial, Helvetica Neue, Helvetica, sans-serif;">HTTP 200</tspan></text></g></g></g></svg>