<?xml version="1.0" standalone="no"?><!DOCTYPE svg PUBLIC "-//W3C//DTD SVG 1.1//EN" "http://www.w3.org/Graphics/SVG/1.1/DTD/svg11.dtd"><svg xmlns="http://www.w3.org/2000/svg" version="1.1" width="641.667" height="443.771" xmlns:xlink="http://www.w3.org/1999/xlink" xlink="http://www.w3.org/1999/xlink" style="position:relative;overflow:hidden;" viewBox="137.5 43.729 641.667 443.771"><defs/><g><g width="150" height="100" transform="scale(1,1) translate(300,191.667)"><g stroke="#6E6E6E" stroke-opacity="1" stroke-width="1" stroke-dasharray="none" width="150" height="100" transform="scale(1,1) translate(0,0)" fill="#FFFFFF" fill-opacity="1"><rect width="150" height="100"/></g><g transform="scale(1,1) translate(0,0)" fill="#B7DDE8" opacity="1" stroke="#B7DDE8"><path d="M0.5,0.5 L149.5,0.5 L149.5,28.5 L0.5,28.5 z" stroke-width="0" stroke-dasharray="none"/></g><g transform="scale(1,1) translate(0,0)" fill="#FFFFFF" opacity="1" stroke="#FFFFFF"><path d="M0.5,28.5 L149.5,28.5 L149.5,99.5 L0.5,99.5 z" stroke-width="0" stroke-dasharray="none"/></g><g width="141" height="19" transform="scale(1,1) translate(4.5,4.5)"><text width="141" height="16.66666603088379" transform="scale(1,1) translate(0,1.1666669845581055)" xml:space="preserve"><tspan xml:space="preserve" text-rendering="optimizeSpeed" font-size="13.88888888888889" font-weight="normal" font-style="normal" text-decoration="none" fill="#000000" opacity="1" x="49.707" text-anchor="start" y="13.542" textLength="41.58528518676758" style="font-family: Verdana, Geneva, sans-serif;">INode</tspan></text></g><g width="141" height="62" transform="scale(1,1) translate(4.5,32.5)"><text width="141" height="27.083332061767578" transform="scale(1,1) translate(0,0)" xml:space="preserve"><tspan xml:space="preserve" text-rendering="optimizeSpeed" font-size="11.11111111111111" font-weight="normal" font-style="normal" text-decoration="none" fill="#000000" opacity="1" x="0" text-anchor="start" y="11.458" textLength="31.11979103088379" style="font-family: Verdana, Geneva, sans-serif;">name</tspan><tspan xml:space="preserve" text-rendering="optimizeSpeed" font-size="11.11111111111111" font-weight="normal" font-style="normal" text-decoration="none" fill="#000000" opacity="1" x="0" text-anchor="start" y="25" textLength="36.344398498535156" style="font-family: Verdana, Geneva, sans-serif;">parent</tspan></text></g><g transform="scale(1,1) translate(0,0)" fill="#6E6E6E" stroke="#6E6E6E" stroke-opacity="1"><path d="M0.5,28 L149.5,28" fill="none" stroke-width="1" stroke-dasharray="none"/><g><g stroke-dasharray="none"><path d="M-0.5,27L1.5,27L1.5,29L-0.5,29z" stroke-width="0" fill="none"/></g></g></g><g stroke="white" fill="none" opacity="0" stroke-width="3" stroke-dasharray="none" width="3" height="99" transform="scale(1,1) translate(3.5,0.5)"><rect width="3" height="99"/></g><g stroke="white" fill="none" opacity="0" stroke-width="3" stroke-dasharray="none" width="149" height="3" transform="scale(1,1) translate(0.5,3.5)"><rect width="149" height="3"/></g></g><g width="150" height="100" transform="scale(1,1) translate(200,375)"><g stroke="#6E6E6E" stroke-opacity="1" stroke-width="1" stroke-dasharray="none" width="150" height="100" transform="scale(1,1) translate(0,0)" fill="#FFFFFF" fill-opacity="1"><rect width="150" height="100"/></g><g transform="scale(1,1) translate(0,0)" fill="#B7DDE8" opacity="1" stroke="#B7DDE8"><path d="M0.5,0.5 L149.5,0.5 L149.5,28.5 L0.5,28.5 z" stroke-width="0" stroke-dasharray="none"/></g><g transform="scale(1,1) translate(0,0)" fill="#FFFFFF" opacity="1" stroke="#FFFFFF"><path d="M0.5,28.5 L149.5,28.5 L149.5,99.5 L0.5,99.5 z" stroke-width="0" stroke-dasharray="none"/></g><g width="141" height="19" transform="scale(1,1) translate(4.5,4.5)"><text width="141" height="16.66666603088379" transform="scale(1,1) translate(0,1.1666669845581055)" xml:space="preserve"><tspan xml:space="preserve" text-rendering="optimizeSpeed" font-size="13.88888888888889" font-weight="normal" font-style="normal" text-decoration="none" fill="#000000" opacity="1" x="50.114" text-anchor="start" y="13.542" textLength="40.771484375" style="font-family: Verdana, Geneva, sans-serif;">Folder</tspan></text></g><g width="141" height="62" transform="scale(1,1) translate(4.5,32.5)"><text width="141" height="13.541666030883789" transform="scale(1,1) translate(0,0)" xml:space="preserve"/></g><g transform="scale(1,1) translate(0,0)" fill="#6E6E6E" stroke="#6E6E6E" stroke-opacity="1"><path d="M0.5,28 L149.5,28" fill="none" stroke-width="1" stroke-dasharray="none"/><g><g stroke-dasharray="none"><path d="M-0.5,27L1.5,27L1.5,29L-0.5,29z" stroke-width="0" fill="none"/></g></g></g><g stroke="white" fill="none" opacity="0" stroke-width="3" stroke-dasharray="none" width="3" height="99" transform="scale(1,1) translate(3.5,0.5)"><rect width="3" height="99"/></g><g stroke="white" fill="none" opacity="0" stroke-width="3" stroke-dasharray="none" width="149" height="3" transform="scale(1,1) translate(0.5,3.5)"><rect width="149" height="3"/></g></g><g width="100" height="83.333" transform="scale(1,1) translate(275,291.667)"><g transform="scale(1,1) translate(0,0)" fill="#000000" stroke="#000000" stroke-opacity="1"><path d="M 100 10 L 100 25 L 0 25 L 0 83.333" fill="none" stroke-width="1" stroke-dasharray="0"/><g><g stroke-dasharray="none"><path d="M95,10L100,0L105,10z" stroke="none" fill-opacity="1"/></g></g></g></g><g width="150" height="100" transform="scale(1,1) translate(400,375)"><g stroke="#6E6E6E" stroke-opacity="1" stroke-width="1" stroke-dasharray="none" width="150" height="100" transform="scale(1,1) translate(0,0)" fill="#FFFFFF" fill-opacity="1"><rect width="150" height="100"/></g><g transform="scale(1,1) translate(0,0)" fill="#B7DDE8" opacity="1" stroke="#B7DDE8"><path d="M0.5,0.5 L149.5,0.5 L149.5,28.5 L0.5,28.5 z" stroke-width="0" stroke-dasharray="none"/></g><g transform="scale(1,1) translate(0,0)" fill="#FFFFFF" opacity="1" stroke="#FFFFFF"><path d="M0.5,28.5 L149.5,28.5 L149.5,99.5 L0.5,99.5 z" stroke-width="0" stroke-dasharray="none"/></g><g width="141" height="19" transform="scale(1,1) translate(4.5,4.5)"><text width="141" height="16.66666603088379" transform="scale(1,1) translate(0,1.1666669845581055)" xml:space="preserve"><tspan xml:space="preserve" text-rendering="optimizeSpeed" font-size="13.88888888888889" font-weight="normal" font-style="normal" text-decoration="none" fill="#000000" opacity="1" x="34.904" text-anchor="start" y="13.542" textLength="71.19140625" style="font-family: Verdana, Geneva, sans-serif;">Document</tspan></text></g><g width="141" height="62" transform="scale(1,1) translate(4.5,32.5)"><text width="141" height="13.541666030883789" transform="scale(1,1) translate(0,0)" xml:space="preserve"><tspan xml:space="preserve" text-rendering="optimizeSpeed" font-size="11.11111111111111" font-weight="normal" font-style="normal" text-decoration="none" fill="#000000" opacity="1" x="0" text-anchor="start" y="11.458" textLength="41.959632873535156" style="font-family: Verdana, Geneva, sans-serif;">content</tspan></text></g><g transform="scale(1,1) translate(0,0)" fill="#6E6E6E" stroke="#6E6E6E" stroke-opacity="1"><path d="M0.5,28 L149.5,28" fill="none" stroke-width="1" stroke-dasharray="none"/><g><g stroke-dasharray="none"><path d="M-0.5,27L1.5,27L1.5,29L-0.5,29z" stroke-width="0" fill="none"/></g></g></g><g stroke="white" fill="none" opacity="0" stroke-width="3" stroke-dasharray="none" width="3" height="99" transform="scale(1,1) translate(3.5,0.5)"><rect width="3" height="99"/></g><g stroke="white" fill="none" opacity="0" stroke-width="3" stroke-dasharray="none" width="149" height="3" transform="scale(1,1) translate(0.5,3.5)"><rect width="149" height="3"/></g></g><g width="100" height="83.333" transform="scale(1,1) translate(375,291.667)"><g transform="scale(1,1) translate(0,0)" fill="#000000" stroke="#000000" stroke-opacity="1"><path d="M0,0 L0,25 L100,25 L100,83.333" fill="none" stroke-width="1" stroke-dasharray="none"/><g><g stroke-dasharray="none"><path d="M-1,-1L1,-1L1,1L-1,1z" stroke-width="0" fill="none"/></g></g></g></g><g width="150" height="100" transform="scale(1,1) translate(616.667,191.667)"><g stroke="#6E6E6E" stroke-opacity="1" stroke-width="1" stroke-dasharray="none" width="150" height="100" transform="scale(1,1) translate(0,0)" fill="#FFFFFF" fill-opacity="1"><rect width="150" height="100"/></g><g transform="scale(1,1) translate(0,0)" fill="#B7DDE8" opacity="1" stroke="#B7DDE8"><path d="M0.5,0.5 L149.5,0.5 L149.5,28.5 L0.5,28.5 z" stroke-width="0" stroke-dasharray="none"/></g><g transform="scale(1,1) translate(0,0)" fill="#FFFFFF" opacity="1" stroke="#FFFFFF"><path d="M0.5,28.5 L149.5,28.5 L149.5,99.5 L0.5,99.5 z" stroke-width="0" stroke-dasharray="none"/></g><g width="141" height="19" transform="scale(1,1) translate(4.5,4.5)"><text width="141" height="16.66666603088379" transform="scale(1,1) translate(0,1.1666669845581055)" xml:space="preserve"><tspan xml:space="preserve" text-rendering="optimizeSpeed" font-size="13.88888888888889" font-weight="normal" font-style="normal" text-decoration="none" fill="#000000" opacity="1" x="52.906" text-anchor="start" y="13.542" textLength="35.18880081176758" style="font-family: Verdana, Geneva, sans-serif;">Topic</tspan></text></g><g width="141" height="62" transform="scale(1,1) translate(4.5,32.5)"><text width="141" height="27.083332061767578" transform="scale(1,1) translate(0,0)" xml:space="preserve"><tspan xml:space="preserve" text-rendering="optimizeSpeed" font-size="11.11111111111111" font-weight="normal" font-style="normal" text-decoration="none" fill="#000000" opacity="1" x="0" text-anchor="start" y="11.458" textLength="31.11979103088379" style="font-family: Verdana, Geneva, sans-serif;">name</tspan><tspan xml:space="preserve" text-rendering="optimizeSpeed" font-size="11.11111111111111" font-weight="normal" font-style="normal" text-decoration="none" fill="#000000" opacity="1" x="0" text-anchor="start" y="25" textLength="61.002601623535156" style="font-family: Verdana, Geneva, sans-serif;">description</tspan></text></g><g transform="scale(1,1) translate(0,0)" fill="#6E6E6E" stroke="#6E6E6E" stroke-opacity="1"><path d="M0.5,28 L149.5,28" fill="none" stroke-width="1" stroke-dasharray="none"/><g><g stroke-dasharray="none"><path d="M-0.5,27L1.5,27L1.5,29L-0.5,29z" stroke-width="0" fill="none"/></g></g></g><g stroke="white" fill="none" opacity="0" stroke-width="3" stroke-dasharray="none" width="3" height="99" transform="scale(1,1) translate(3.5,0.5)"><rect width="3" height="99"/></g><g stroke="white" fill="none" opacity="0" stroke-width="3" stroke-dasharray="none" width="149" height="3" transform="scale(1,1) translate(0.5,3.5)"><rect width="149" height="3"/></g></g><g width="166.667" height="1" transform="scale(1,1) translate(450,241.667)"><g transform="scale(1,1) translate(0,0)" fill="#000000" stroke="#000000" stroke-opacity="1"><path d="M0,0 L166.667,0" fill="none" stroke-width="1" stroke-dasharray="none"/><g><g stroke-dasharray="none"><path d="M-1,-1L1,-1L1,1L-1,1z" stroke-width="0" fill="none"/></g></g></g></g><g width="19.368" height="15.625" transform="scale(1,1) translate(455,221.042)"><g stroke="#545454" stroke-opacity="1" stroke-width="0" stroke-dasharray="none" width="19.368" height="15.625" transform="scale(1,1) translate(0,0)" fill="none"><rect width="19.368" height="15.625"/></g><g width="19.368488788604736" height="15.624999046325684" transform="scale(1,1) translate(0,0)"><text width="19.368488788604736" height="15.624999046325684" transform="scale(1,1) translate(0,0)" xml:space="preserve"><tspan xml:space="preserve" text-rendering="optimizeSpeed" font-size="13.88888888888889" font-weight="normal" font-style="normal" text-decoration="none" fill="#333333" opacity="1" x="0.041" text-anchor="start" y="12.5" textLength="15.413411140441895" style="font-family: Arial, Helvetica Neue, Helvetica, sans-serif;"> M</tspan></text></g></g><g width="19.368" height="15.625" transform="scale(1,1) translate(592.298,221.042)"><g stroke="#545454" stroke-opacity="1" stroke-width="0" stroke-dasharray="none" width="19.368" height="15.625" transform="scale(1,1) translate(0,0)" fill="none"><rect width="19.368" height="15.625"/></g><g width="19.368488788604736" height="15.624999046325684" transform="scale(1,1) translate(0,0)"><text width="19.368488788604736" height="15.624999046325684" transform="scale(1,1) translate(0,0)" xml:space="preserve"><tspan xml:space="preserve" text-rendering="optimizeSpeed" font-size="13.88888888888889" font-weight="normal" font-style="normal" text-decoration="none" fill="#333333" opacity="1" x="0.041" text-anchor="start" y="12.5" textLength="15.413411140441895" style="font-family: Arial, Helvetica Neue, Helvetica, sans-serif;"> M</tspan></text></g></g><g width="100" height="183.333" transform="scale(1,1) translate(200,241.667)"><g transform="scale(1,1) translate(0,0)" fill="#000000" stroke="#000000" stroke-opacity="1"><path d="M100,0 L-50,0 L-50,183.333 L0,183.333" fill="none" stroke-width="1" stroke-dasharray="none"/><g><g stroke-dasharray="none"><path d="M99,-1L101,-1L101,1L99,1z" stroke-width="0" fill="none"/></g></g></g></g><g width="19.368" height="15.625" transform="scale(1,1) translate(275.632,221.042)"><g stroke="#545454" stroke-opacity="1" stroke-width="0" stroke-dasharray="none" width="19.368" height="15.625" transform="scale(1,1) translate(0,0)" fill="none"><rect width="19.368" height="15.625"/></g><g width="19.368488788604736" height="15.624999046325684" transform="scale(1,1) translate(0,0)"><text width="19.368488788604736" height="15.624999046325684" transform="scale(1,1) translate(0,0)" xml:space="preserve"><tspan xml:space="preserve" text-rendering="optimizeSpeed" font-size="13.88888888888889" font-weight="normal" font-style="normal" text-decoration="none" fill="#333333" opacity="1" x="3.898" text-anchor="start" y="12.5" textLength="11.572265625" style="font-family: Arial, Helvetica Neue, Helvetica, sans-serif;">M</tspan></text></g></g><g width="19.368" height="16.667" transform="scale(1,1) translate(175.632,403.333)"><g stroke="#545454" stroke-opacity="1" stroke-width="0" stroke-dasharray="none" width="19.368" height="16.667" transform="scale(1,1) translate(0,0)" fill="none"><rect width="19.368" height="16.667"/></g><g width="19.368488788604736" height="16.666666666666686" transform="scale(1,1) translate(0,0)"><text width="19.368488788604736" height="15.624999046325684" transform="scale(1,1) translate(0,0.520833810170501)" xml:space="preserve"><tspan xml:space="preserve" text-rendering="optimizeSpeed" font-size="13.88888888888889" font-weight="normal" font-style="normal" text-decoration="none" fill="#333333" opacity="1" x="5.819" text-anchor="start" y="12.5" textLength="7.731119632720947" style="font-family: Arial, Helvetica Neue, Helvetica, sans-serif;">1</tspan></text></g></g><g width="379.688" height="37.5" transform="scale(1,1) translate(264.063,55.729)"><g stroke="#545454" stroke-opacity="1" stroke-width="0" stroke-dasharray="none" width="379.688" height="37.5" transform="scale(1,1) translate(0,0)" fill="none"><rect width="379.688" height="37.5"/></g><g width="379.6875" height="37.5" transform="scale(1,1) translate(0,0)"><text width="379.6875" height="37.5" transform="scale(1,1) translate(0,0)" xml:space="preserve"><tspan xml:space="preserve" text-rendering="optimizeSpeed" font-size="33.333333333333336" font-weight="bold" font-style="normal" text-decoration="none" fill="#333333" opacity="1" x="0" text-anchor="start" y="30.208" textLength="379.6875" style="font-family: Arial, Helvetica Neue, Helvetica, sans-serif;">RESTFS Model Diagram</tspan></text></g></g></g></svg>