<?xml version="1.0" standalone="no"?><!DOCTYPE svg PUBLIC "-//W3C//DTD SVG 1.1//EN" "http://www.w3.org/Graphics/SVG/1.1/DTD/svg11.dtd"><svg xmlns="http://www.w3.org/2000/svg" version="1.1" width="816.002" height="558.251" xmlns:xlink="http://www.w3.org/1999/xlink" xlink="http://www.w3.org/1999/xlink" style="position:relative;overflow:hidden;" viewBox="104.831 52.583 816.002 558.251"><defs/><g><g width="45.833" height="94.167" transform="scale(1,1) translate(460.417,177.917)"><g width="45.833" height="94.167"><g transform="scale(0.9581951580956348,0.9781517375468436) translate(0,0)"><g><g width="0" height="45" transform="scale(1,1) translate(23.167,22.167)"><g transform="scale(1,1) translate(0,0)" fill-opacity="1" fill="#000000" stroke-opacity="1" stroke="#000000"><path d="M0,0 L0,45" fill="none" stroke-width="2" stroke-dasharray="none"/><g><g stroke-dasharray="none"><path d="M-2,-2L2,-2L2,2L-2,2z" stroke-width="0" fill="none"/></g></g></g></g><g width="21.5" height="21.5" transform="scale(1,1) translate(12.167,1)"><g width="21.5" height="21.5" transform="scale(1,1) translate(0,0)" stroke-opacity="1" stroke="#000000" stroke-width="2" stroke-dasharray="none" fill="none"><ellipse rx="10.75" ry="10.75" cx="10.75" cy="10.75"/></g></g><g width="43.833" height="0" transform="scale(1,1) translate(1,33.5)"><g transform="scale(1,1) translate(0,0)" fill-opacity="1" fill="#000000" stroke-opacity="1" stroke="#000000"><path d="M0,0 L43.833,0" fill="none" stroke-width="2" stroke-dasharray="none"/><g><g stroke-dasharray="none"><path d="M-2,-2L2,-2L2,2L-2,2z" stroke-width="0" fill="none"/></g></g></g></g><g width="18" height="26.333" transform="scale(1,1) translate(5.167,66.937)"><g transform="scale(1,1) translate(0,0)" fill-opacity="1" fill="#000000" stroke-opacity="1" stroke="#000000"><path d="M0,26.333 L18,0" fill="none" stroke-width="2" stroke-dasharray="none"/><g><g stroke-dasharray="none"><path d="M-2,24.333L2,24.333L2,28.333L-2,28.333z" stroke-width="0" fill="none"/></g></g></g></g><g width="15.333" height="25" transform="scale(1,1) translate(22.996,67.167)"><g transform="scale(1,1) translate(0,0)" fill-opacity="1" fill="#000000" stroke-opacity="1" stroke="#000000"><path d="M0,0 L15.333,25" fill="none" stroke-width="2" stroke-dasharray="none"/><g><g stroke-dasharray="none"><path d="M-2,-2L2,-2L2,2L-2,2z" stroke-width="0" fill="none"/></g></g></g></g></g></g></g></g><g width="150" height="74.333" transform="scale(1,1) translate(758.333,337.833)"><g width="150" height="74.333" transform="scale(1,1) translate(0,0)" stroke="#7F7F7F" stroke-width="1" stroke-dasharray="none" fill="#FFFFFF" fill-opacity="1" stroke-opacity="1"><ellipse rx="75" ry="37.1665" cx="75" cy="37.1665"/></g><g width="101.358910518" height="47.85449734666666" transform="scale(1,1) translate(24.321,13.239)"><text width="101.358910518" height="15.624999046325684" transform="scale(1,1) translate(0,16.11474915017049)" xml:space="preserve"><tspan xml:space="preserve" text-rendering="optimizeSpeed" font-size="13.88888888888889" font-weight="normal" font-style="normal" text-decoration="none" fill="#000000" opacity="1" x="11.829" text-anchor="start" y="12.5" textLength="77.70182037353516" style="font-family: Arial, Helvetica Neue, Helvetica, sans-serif;">Create Topic</tspan></text></g></g><g width="165.338" height="81.653" transform="scale(1,1) translate(117.331,367.507)"><g width="165.338" height="81.653" transform="scale(1,1) translate(0,0)" stroke="#7F7F7F" stroke-width="1" stroke-dasharray="none" fill="#FFFFFF" fill-opacity="1" stroke-opacity="1"><ellipse rx="82.669" ry="40.8265" cx="82.669" cy="40.8265"/></g><g transform="scale(1,1) translate(0,0)" fill="#FFFFFF" opacity="1" stroke="#FFFFFF"><path d="M164.827,41.41 L0.511,41.41 L0.504,41.234 L0.504,40.419 L0.538,39.604 L0.605,38.79 L0.706,37.975 L0.84,37.16 L1.009,36.346 L1.212,35.531 L1.449,34.716 L1.721,33.902 L2.027,33.087 L2.37,32.272 L2.748,31.458 L3.163,30.643 L3.615,29.828 L4.104,29.014 L4.632,28.199 L5.199,27.384 L5.806,26.57 L6.454,25.755 L7.144,24.94 L7.878,24.125 L8.656,23.311 L9.479,22.496 L10.35,21.681 L11.271,20.867 L12.242,20.052 L13.267,19.237 L14.347,18.423 L15.486,17.608 L16.686,16.793 L17.951,15.979 L19.285,15.164 L20.692,14.349 L22.176,13.535 L23.746,12.72 L25.406,11.905 L27.165,11.091 L29.033,10.276 L31.023,9.461 L33.147,8.647 L35.425,7.832 L37.88,7.017 L40.544,6.203 L43.457,5.388 L46.682,4.573 L50.31,3.759 L54.498,2.944 L59.548,2.129 L66.236,1.315 L82.669,0.5 L99.102,1.315 L105.79,2.129 L110.84,2.944 L115.028,3.759 L118.657,4.573 L121.881,5.388 L124.795,6.203 L127.458,7.017 L129.913,7.832 L132.191,8.647 L134.316,9.461 L136.305,10.276 L138.173,11.091 L139.933,11.905 L141.593,12.72 L143.162,13.535 L144.647,14.349 L146.054,15.164 L147.387,15.979 L148.652,16.793 L149.852,17.608 L150.991,18.423 L152.072,19.237 L153.096,20.052 L154.068,20.867 L154.988,21.681 L155.859,22.496 L156.683,23.311 L157.461,24.125 L158.194,24.94 L158.884,25.755 L159.532,26.57 L160.139,27.384 L160.706,28.199 L161.234,29.014 L161.723,29.828 L162.175,30.643 L162.59,31.458 L162.968,32.272 L163.311,33.087 L163.618,33.902 L163.89,34.716 L164.127,35.531 L164.33,36.346 L164.498,37.16 L164.633,37.975 L164.733,38.79 L164.801,39.604 L164.834,40.419 L164.834,41.234 L164.801,42.048 z M164.827,41.41 L0.511,41.41 L0.504,41.234 L0.538,42.048 L0.605,42.863 L0.706,43.678 L0.84,44.492 L1.009,45.307 L1.212,46.122 L1.449,46.936 L1.721,47.751 L2.027,48.566 L2.37,49.38 L2.748,50.195 L3.163,51.01 L3.615,51.824 L4.104,52.639 L4.632,53.454 L5.199,54.268 L5.806,55.083 L6.454,55.898 L7.144,56.712 L7.878,57.527 L8.656,58.342 L9.479,59.156 L10.35,59.971 L11.271,60.786 L12.242,61.6 L13.267,62.415 L14.347,63.23 L15.486,64.044 L16.686,64.859 L17.951,65.674 L19.285,66.488 L20.692,67.303 L22.176,68.118 L23.746,68.932 L25.406,69.747 L27.165,70.562 L29.033,71.376 L31.023,72.191 L33.147,73.006 L35.425,73.82 L37.88,74.635 L40.544,75.45 L43.457,76.264 L46.682,77.079 L50.31,77.894 L54.498,78.709 L59.548,79.523 L66.236,80.338 L82.669,81.153 L99.102,80.338 L105.79,79.523 L110.84,78.709 L115.028,77.894 L118.657,77.079 L121.881,76.264 L124.795,75.45 L127.458,74.635 L129.913,73.82 L132.191,73.006 L134.316,72.191 L136.305,71.376 L138.173,70.562 L139.933,69.747 L141.593,68.932 L143.162,68.118 L144.647,67.303 L146.054,66.488 L147.387,65.674 L148.652,64.859 L149.852,64.044 L150.991,63.23 L152.072,62.415 L153.096,61.6 L154.068,60.786 L154.988,59.971 L155.859,59.156 L156.683,58.342 L157.461,57.527 L158.194,56.712 L158.884,55.898 L159.532,55.083 L160.139,54.268 L160.706,53.454 L161.234,52.639 L161.723,51.824 L162.175,51.01 L162.59,50.195 L162.968,49.38 L163.311,48.566 L163.618,47.751 L163.89,46.936 L164.127,46.122 L164.33,45.307 L164.498,44.492 L164.633,43.678 L164.733,42.863 L164.801,42.048 z" stroke-width="0" stroke-dasharray="none"/></g><g width="112.19267838276036" height="24.11058684055521" transform="scale(1,1) translate(26.573,14.306)"><text width="112.19267838276036" height="14.583333015441895" transform="scale(1,1) translate(0,4.763626912556658)" xml:space="preserve"><tspan xml:space="preserve" text-rendering="optimizeSpeed" font-size="12.5" font-weight="normal" font-style="normal" text-decoration="none" fill="#000000" opacity="1" x="0.164" text-anchor="start" y="11.458" textLength="111.86522674560547" style="font-family: Arial, Helvetica Neue, Helvetica, sans-serif;">List Folder Contents</tspan></text></g><g width="112.19267838276036" height="23.941355827924987" transform="scale(1,1) translate(26.573,43.405)"><text width="112.19267838276036" height="14.583333015441895" transform="scale(1,1) translate(0,4.679011406241546)" xml:space="preserve"><tspan xml:space="preserve" text-rendering="optimizeSpeed" font-size="12.469456160377597" font-weight="normal" font-style="normal" text-decoration="none" fill="#000000" opacity="1" x="7.7" text-anchor="start" y="11.458" textLength="96.79361724853516" style="font-family: Arial, Helvetica Neue, Helvetica, sans-serif;">Filtered by Topics</tspan></text></g><g transform="scale(1,1) translate(0,0)" fill="#7F7F7F" stroke="#7F7F7F" stroke-opacity="1"><path d="M0.504,40.911 L164.834,40.911" fill="none" stroke-width="0.998" stroke-dasharray="none"/><g><g stroke-dasharray="none"><path d="M-0.494,39.913L1.502,39.913L1.502,41.909L-0.494,41.909z" stroke-width="0" fill="none"/></g></g></g><g stroke="white" fill="none" opacity="0" stroke-width="3" stroke-dasharray="none" width="3" height="57.03" transform="scale(1,1) translate(27.567,12.311)"><rect width="3" height="57.03"/></g><g stroke="white" fill="none" opacity="0" stroke-width="3" stroke-dasharray="none" width="116.205" height="3" transform="scale(1,1) translate(24.567,15.311)"><rect width="116.205" height="3"/></g></g><g width="162" height="80.002" transform="scale(1,1) translate(285.667,518.332)"><g width="162" height="80.002" transform="scale(1,1) translate(0,0)" stroke="#7F7F7F" stroke-width="1" stroke-dasharray="none" fill="#FFFFFF" fill-opacity="1" stroke-opacity="1"><ellipse rx="81" ry="40.001" cx="81" cy="40.001"/></g><g transform="scale(1,1) translate(0,0)" fill="#FFFFFF" opacity="1" stroke="#FFFFFF"><path d="M161.496,40.001 L0.504,40.001 L0.504,39.602 L0.537,38.804 L0.603,38.006 L0.701,37.208 L0.833,36.41 L0.998,35.612 L1.197,34.814 L1.429,34.016 L1.696,33.218 L1.996,32.42 L2.332,31.622 L2.703,30.824 L3.109,30.026 L3.552,29.228 L4.031,28.43 L4.548,27.632 L5.104,26.834 L5.699,26.036 L6.333,25.238 L7.01,24.44 L7.728,23.642 L8.49,22.844 L9.297,22.046 L10.15,21.248 L11.052,20.45 L12.004,19.652 L13.007,18.854 L14.066,18.056 L15.182,17.258 L16.357,16.46 L17.597,15.662 L18.903,14.864 L20.281,14.066 L21.736,13.268 L23.273,12.47 L24.9,11.672 L26.623,10.874 L28.454,10.076 L30.403,9.278 L32.484,8.48 L34.716,7.682 L37.121,6.884 L39.73,6.086 L42.584,5.288 L45.743,4.49 L49.298,3.692 L53.401,2.894 L58.349,2.096 L64.901,1.298 L81,0.5 L97.099,1.298 L103.651,2.096 L108.599,2.894 L112.702,3.692 L116.257,4.49 L119.416,5.288 L122.27,6.086 L124.879,6.884 L127.284,7.682 L129.516,8.48 L131.597,9.278 L133.546,10.076 L135.377,10.874 L137.1,11.672 L138.727,12.47 L140.264,13.268 L141.719,14.066 L143.097,14.864 L144.403,15.662 L145.643,16.46 L146.818,17.258 L147.934,18.056 L148.993,18.854 L149.996,19.652 L150.948,20.45 L151.85,21.248 L152.703,22.046 L153.51,22.844 L154.272,23.642 L154.99,24.44 L155.667,25.238 L156.301,26.036 L156.896,26.834 L157.452,27.632 L157.969,28.43 L158.448,29.228 L158.891,30.026 L159.297,30.824 L159.668,31.622 L160.004,32.42 L160.304,33.218 L160.571,34.016 L160.803,34.814 L161.002,35.612 L161.167,36.41 L161.299,37.208 L161.397,38.006 L161.463,38.804 L161.496,39.602 L161.496,40.4 z M161.496,40.001 L0.504,40.001 L0.504,39.602 L0.504,40.4 L0.537,41.198 L0.603,41.996 L0.701,42.794 L0.833,43.592 L0.998,44.39 L1.197,45.188 L1.429,45.986 L1.696,46.784 L1.996,47.582 L2.332,48.38 L2.703,49.178 L3.109,49.976 L3.552,50.774 L4.031,51.572 L4.548,52.37 L5.104,53.168 L5.699,53.966 L6.333,54.764 L7.01,55.562 L7.728,56.36 L8.49,57.158 L9.297,57.956 L10.15,58.754 L11.052,59.552 L12.004,60.35 L13.007,61.148 L14.066,61.946 L15.182,62.744 L16.357,63.542 L17.597,64.34 L18.903,65.138 L20.281,65.936 L21.736,66.734 L23.273,67.532 L24.9,68.33 L26.623,69.128 L28.454,69.926 L30.403,70.724 L32.484,71.522 L34.716,72.32 L37.121,73.118 L39.73,73.916 L42.584,74.714 L45.743,75.512 L49.298,76.31 L53.401,77.108 L58.349,77.906 L64.901,78.704 L81,79.502 L97.099,78.704 L103.651,77.906 L108.599,77.108 L112.702,76.31 L116.257,75.512 L119.416,74.714 L122.27,73.916 L124.879,73.118 L127.284,72.32 L129.516,71.522 L131.597,70.724 L133.546,69.926 L135.377,69.128 L137.1,68.33 L138.727,67.532 L140.264,66.734 L141.719,65.936 L143.097,65.138 L144.403,64.34 L145.643,63.542 L146.818,62.744 L147.934,61.946 L148.993,61.148 L149.996,60.35 L150.948,59.552 L151.85,58.754 L152.703,57.956 L153.51,57.158 L154.272,56.36 L154.99,55.562 L155.667,54.764 L156.301,53.966 L156.896,53.168 L157.452,52.37 L157.969,51.572 L158.448,50.774 L158.891,49.976 L159.297,49.178 L159.668,48.38 L160.004,47.582 L160.304,46.784 L160.571,45.986 L160.803,45.188 L161.002,44.39 L161.167,43.592 L161.299,42.794 L161.397,41.996 L161.463,41.198 L161.496,40.4 z" stroke-width="0" stroke-dasharray="none"/></g><g transform="scale(1,1) translate(0,0)" fill="#7F7F7F" stroke="#7F7F7F" stroke-opacity="1"><path d="M0.508,39.502 L161.492,39.502" fill="none" stroke-width="0.998" stroke-dasharray="none"/><g><g stroke-dasharray="none"><path d="M-0.49,38.504L1.506,38.504L1.506,40.5L-0.49,40.5z" stroke-width="0" fill="none"/></g></g></g><g stroke="white" fill="none" opacity="0" stroke-width="3" stroke-dasharray="none" width="3" height="55.863" transform="scale(1,1) translate(27.078,12.07)"><rect width="3" height="55.863"/></g><g stroke="white" fill="none" opacity="0" stroke-width="3" stroke-dasharray="none" width="113.844" height="3" transform="scale(1,1) translate(24.078,15.07)"><rect width="113.844" height="3"/></g><g width="109.83000584929395" height="22.943799335094777" transform="scale(1,1) translate(26.084,14.065)"><text width="109.83000584929395" height="14.583333015441895" transform="scale(1,1) translate(0,4.180233159826441)" xml:space="preserve"><tspan xml:space="preserve" text-rendering="optimizeSpeed" font-size="12.469456160377597" font-weight="normal" font-style="normal" text-decoration="none" fill="#000000" opacity="1" x="17.138" text-anchor="start" y="11.458" textLength="75.55338287353516" style="font-family: Arial, Helvetica Neue, Helvetica, sans-serif;">Create Folder</tspan></text></g><g width="109.83000584929395" height="23.941355827924994" transform="scale(1,1) translate(26.084,41.996)"><text width="109.83000584929395" height="14.583333015441895" transform="scale(1,1) translate(0,4.67901140624155)" xml:space="preserve"><tspan xml:space="preserve" text-rendering="optimizeSpeed" font-size="12.469456160377597" font-weight="normal" font-style="normal" text-decoration="none" fill="#000000" opacity="1" x="6.054" text-anchor="start" y="11.458" textLength="97.72135162353516" style="font-family: Arial, Helvetica Neue, Helvetica, sans-serif;">Create Document</tspan></text></g></g><g width="150" height="74.333" transform="scale(1,1) translate(583.333,471.167)"><g width="150" height="74.333" transform="scale(1,1) translate(0,0)" stroke="#7F7F7F" stroke-width="1" stroke-dasharray="none" fill="#FFFFFF" fill-opacity="1" stroke-opacity="1"><ellipse rx="75" ry="37.1665" cx="75" cy="37.1665"/></g><g width="101.358910518" height="47.85449734666666" transform="scale(1,1) translate(24.321,13.239)"><text width="101.358910518" height="31.249998092651367" transform="scale(1,1) translate(0,8.302249627007647)" xml:space="preserve"><tspan xml:space="preserve" text-rendering="optimizeSpeed" font-size="13.88888888888889" font-weight="normal" font-style="normal" text-decoration="none" fill="#000000" opacity="1" x="26.371" text-anchor="start" y="12.5" textLength="44.75911331176758" style="font-family: Arial, Helvetica Neue, Helvetica, sans-serif;">Update</tspan><tspan xml:space="preserve" text-rendering="optimizeSpeed" font-size="13.88888888888889" font-weight="normal" font-style="normal" text-decoration="none" fill="#000000" opacity="1" x="19.023" text-anchor="start" y="28.125" textLength="63.31380081176758" style="font-family: Arial, Helvetica Neue, Helvetica, sans-serif;">Document</tspan></text></g></g><g width="260.417" height="142.507" transform="scale(1,1) translate(200,225)"><g transform="scale(1,1) translate(0,0)" fill="#000000" stroke="#000000" stroke-opacity="1"><path d="M260.417,0 L0,142.507" fill="none" stroke-width="1" stroke-dasharray="none"/><g><g stroke-dasharray="none"><path d="M259.417,-1L261.417,-1L261.417,1L259.417,1z" stroke-width="0" fill="none"/></g></g></g></g><g width="116.667" height="246.249" transform="scale(1,1) translate(366.667,272.083)"><g transform="scale(1,1) translate(0,0)" fill="#000000" stroke="#000000" stroke-opacity="1"><path d="M116.667,0 L0,246.249" fill="none" stroke-width="1" stroke-dasharray="none"/><g><g stroke-dasharray="none"><path d="M115.667,-1L117.667,-1L117.667,1L115.667,1z" stroke-width="0" fill="none"/></g></g></g></g><g width="175" height="199.083" transform="scale(1,1) translate(483.333,272.083)"><g transform="scale(1,1) translate(0,0)" fill="#000000" stroke="#000000" stroke-opacity="1"><path d="M0,0 L175,199.083" fill="none" stroke-width="1" stroke-dasharray="none"/><g><g stroke-dasharray="none"><path d="M-1,-1L1,-1L1,1L-1,1z" stroke-width="0" fill="none"/></g></g></g></g><g width="327.083" height="112.833" transform="scale(1,1) translate(506.25,225)"><g transform="scale(1,1) translate(0,0)" fill="#000000" stroke="#000000" stroke-opacity="1"><path d="M0,0 L327.083,112.833" fill="none" stroke-width="1" stroke-dasharray="none"/><g><g stroke-dasharray="none"><path d="M-1,-1L1,-1L1,1L-1,1z" stroke-width="0" fill="none"/></g></g></g></g><g width="309.391" height="37.5" transform="scale(1,1) translate(345.304,64.583)"><g stroke="#545454" stroke-opacity="1" stroke-width="0" stroke-dasharray="none" width="309.391" height="37.5" transform="scale(1,1) translate(0,0)" fill="none"><rect width="309.391" height="37.5"/></g><g width="309.3912658691406" height="37.5" transform="scale(1,1) translate(0,0)"><text width="309.3912658691406" height="37.5" transform="scale(1,1) translate(0,0)" xml:space="preserve"><tspan xml:space="preserve" text-rendering="optimizeSpeed" font-size="33.333333333333336" font-weight="bold" font-style="normal" text-decoration="none" fill="#333333" opacity="1" x="0" text-anchor="start" y="30.208" textLength="309.3912658691406" style="font-family: Arial, Helvetica Neue, Helvetica, sans-serif;">RESTFS Use Cases</tspan></text></g></g></g></svg>